<?xml version="1.0" encoding="UTF-8" standalone="no"?>
<svg
   width="80"
   height="80"
   viewBox="0 0 80 80"
   fill="none"
   version="1.1"
   id="svg326"
   sodipodi:docname="Subtract.svg"
   inkscape:version="1.2.2 (b0a8486541, 2022-12-01)"
   xmlns:inkscape="http://www.inkscape.org/namespaces/inkscape"
   xmlns:sodipodi="http://sodipodi.sourceforge.net/DTD/sodipodi-0.dtd"
   xmlns="http://www.w3.org/2000/svg"
   xmlns:svg="http://www.w3.org/2000/svg">
  <defs
     id="defs330" />
  <sodipodi:namedview
     id="namedview328"
     pagecolor="#ffffff"
     bordercolor="#999999"
     borderopacity="1"
     inkscape:showpageshadow="0"
     inkscape:pageopacity="0"
     inkscape:pagecheckerboard="0"
     inkscape:deskcolor="#d1d1d1"
     showgrid="false"
     inkscape:zoom="6.2553127"
     inkscape:cx="58.350401"
     inkscape:cy="46.200728"
     inkscape:window-width="1920"
     inkscape:window-height="1048"
     inkscape:window-x="0"
     inkscape:window-y="0"
     inkscape:window-maximized="1"
     inkscape:current-layer="svg326" />
  <mask
     id="path-1-inside-1_4_37"
     fill="#ffffff">
    <path
       d="m 105.857,104.072 c 79.172,-24.2148 184.095,-26.6502 255.41,-0.01 1.284,0.48 2.378,0.358 3.313,-0.179 0.904,-0.52 1.616,-1.401 2.226,-2.351 0.607,-0.946 1.163,-2.0451 1.7,-3.0017 0.552,-0.9834 1.089,-1.8286 1.69,-2.3916 0.583,-0.545 1.189,-0.7946 1.925,-0.668 0.778,0.1339 1.79,0.7016 3.115,2.0332 2.648,2.6601 6.325,8.1331 11.656,18.1501 l 0.086,0.16 0.167,0.069 c 31.361,12.752 57.074,30.104 73.119,52.23 C 462.711,179.331 464,190.83 464,202.521 464,312.149 350.777,397 229.514,397 110.59,397 4.18156,311.525 0.120117,204.821 48.9074,171.74 111.966,156.618 197.076,154.766 c -15.43,2.617 -29.685,7.581 -41.322,15.795 -43.63,18.419 -100.853,51.682 -124.0167,66.013 l -0.4658,0.287 57.3281,76.438 0.2295,0.305 0.3555,-0.14 26.2554,-10.404 40.06,26.707 v 27.563 l 0.305,0.13 36.33,15.428 3.918,7.835 0.075,0.151 0.151,0.074 c 2.44,1.199 6.061,2.135 10.076,2.871 4.028,0.738 8.496,1.281 12.66,1.678 4.165,0.397 8.032,0.648 10.857,0.799 1.413,0.076 2.566,0.126 3.365,0.158 0.4,0.016 0.711,0.027 0.923,0.034 0.106,0.004 0.188,0.007 0.242,0.009 0.027,10e-4 0.048,0.002 0.062,0.002 h 0.036 c 12.945,0 18.016,0.948 36.026,0 0.408,-0.021 0.773,-0.26 1.075,-0.538 0.313,-0.289 0.628,-0.684 0.938,-1.147 0.622,-0.926 1.274,-2.194 1.904,-3.611 1.126,-2.532 2.204,-5.601 2.935,-8.204 h 9.931 l -0.362,-0.724 -9.5,-19 -11.631,-23.26 12.287,16.098 2.5,3.276 11,14.414 0.251,0.329 0.37,-0.186 17,-8.5 0.305,-0.152 -0.031,-0.34 -1,-11 -0.016,-0.167 -0.113,-0.125 -18.311,-20.083 -3.189,-3.497 -4.351,-4.772 4.66,3.931 2.537,2.141 18.963,16 0.629,0.53 0.18,-0.803 3.5,-15.5 0.057,-0.251 -0.171,-0.191 -14.5,-16.269 -1.657,-1.859 0.328,-0.31 1.642,1.177 23.023,16.499 0.288,0.207 0.29,-0.203 24.782,-17.348 24.753,9.406 0.28,0.106 0.226,-0.196 c 9.512,-8.261 23.879,-21.826 36.072,-35.685 6.097,-6.928 11.658,-13.941 15.799,-20.406 4.13,-6.449 6.888,-12.417 7.299,-17.244 l 0.022,-0.249 -0.187,-0.167 c -22.444,-20.039 -77.089,-53.731 -101.58,-68.059 l -0.041,-0.023 -0.045,-0.016 -1.844,-0.645 c -15.047,-5.195 -36.946,-11.03 -60.825,-14.477 32.07,1.049 58.836,3.322 84.223,8.541 36.036,7.409 69.313,20.756 111.028,44.986 l 0.502,-0.866 c -41.784,-24.27 -75.163,-37.664 -111.329,-45.099 -28.073,-5.772 -57.813,-7.949 -94.445,-8.849 -3.718,-0.416 -7.467,-0.769 -11.228,-1.044 -13.66,-0.997 -27.511,-0.987 -40.712,0.556 C 116.085,154.695 50.5369,169.628 0.0791016,203.64 0.0262747,201.932 0,200.218 0,198.5 4.21511e-8,190.088 0.637432,181.798 1.86914,173.661 L 1.95117,173.7 C 8.0437,160.897 19.0064,150.28 33.1123,140.447 47.2186,130.614 64.4219,121.597 82.958,111.972 l 0.1709,-0.088 0.0674,-0.18 c 3.6827,-9.813 6.435,-14.9722 8.584,-17.2841 1.0692,-1.1502 1.9148,-1.5165 2.5859,-1.5029 0.6737,0.0137 1.3346,0.4121 2.0264,1.1777 0.6883,0.7619 1.3403,1.8138 2.0049,2.9805 0.6533,1.147 1.3238,2.4163 2.0185,3.5298 0.695,1.115 1.456,2.145 2.327,2.815 0.893,0.687 1.932,1.014 3.114,0.652 z m 99.249,50.559 c 6.021,-0.072 12.15,-0.081 18.39,-0.027 11.798,0.103 22.897,0.256 33.422,0.514 28.584,3.208 55.365,10.305 72.37,16.337 24.46,14.312 78.728,47.779 101.189,67.749 -0.462,4.533 -3.08,10.236 -7.12,16.543 -4.103,6.406 -9.629,13.376 -15.708,20.284 -12.061,13.708 -26.265,27.137 -35.753,35.394 l -24.718,-9.393 -0.248,-0.094 -0.217,0.152 -24.71,17.296 -22.269,-15.96 34.612,-36.565 36.484,-31.985 0.346,-0.304 -0.274,-0.37 -24,-32.5 -0.325,-0.439 -0.408,0.362 -52.415,46.424 -24.392,6.97 -0.714,0.204 0.458,0.585 18,23 0.224,0.286 0.341,-0.124 42.081,-15.348 0.646,1.294 -33.467,36.502 -4.64,-3.325 -0.664,0.739 3.695,4.146 -0.166,0.158 -0.06,0.058 -0.039,0.075 -7.712,14.804 -10.023,-8.456 -0.691,0.719 9.306,10.207 -7.625,24.196 -14.915,-19.543 -0.844,0.527 13.933,27.868 -2.988,27.274 c -0.61,1.366 -1.224,2.55 -1.79,3.393 -0.288,0.429 -0.553,0.754 -0.785,0.968 -0.244,0.224 -0.392,0.271 -0.449,0.274 -17.99,0.947 -22.919,-10e-4 -35.974,-10e-4 -0.002,0 -0.004,0 -0.006,0 -0.013,0 -0.034,-0.001 -0.06,-0.002 -0.054,-0.002 -0.135,-0.004 -0.24,-0.008 -0.21,-0.007 -0.52,-0.018 -0.918,-0.034 -0.796,-0.032 -1.944,-0.083 -3.351,-0.158 -2.816,-0.151 -6.668,-0.4 -10.815,-0.795 -4.148,-0.395 -8.587,-0.935 -12.575,-1.666 -3.915,-0.717 -7.356,-1.614 -9.666,-2.716 l -0.366,-0.732 c 0.158,-4.961 -0.124,-17.852 -2.511,-30.978 -2.418,-13.301 -11.397,-29.335 -15.574,-35.684 l -0.017,-0.026 -0.019,-0.023 -10.671,-12.601 c -3.977,-4.688 -8.195,-9.651 -12.118,-14.251 -7.834,-9.185 -14.521,-16.959 -15.739,-18.179 -0.292,-0.291 -0.501,-0.526 -0.645,-0.711 -0.011,-0.015 -0.022,-0.03 -0.032,-0.044 0.131,0.027 0.289,0.067 0.469,0.124 0.375,0.117 0.788,0.281 1.151,0.442 l 0.037,0.017 0.039,0.009 40,10.5 0.336,0.089 0.2,-0.285 16.5,-23.5 0.553,-0.787 H 197.5 c -8.771,0 -12.713,0.729 -15.171,0.901 -1.217,0.085 -2.049,0.033 -2.958,-0.283 -0.93,-0.323 -1.973,-0.932 -3.59,-2.031 -3.095,-2.105 -7.697,-5.99 -13.101,-10.691 -5.393,-4.69 -11.573,-10.181 -17.794,-15.464 -6.222,-5.284 -12.503,-10.375 -18.109,-14.272 -2.803,-1.948 -5.445,-3.604 -7.834,-4.838 -2.382,-1.23 -4.542,-2.056 -6.373,-2.317 l -0.364,-0.052 -0.158,0.332 c -2.418,5.085 -5.994,12.74 -8.867,19.174 -1.436,3.216 -2.699,6.132 -3.5531,8.272 -0.4262,1.068 -0.7554,1.954 -0.9531,2.59 -0.0977,0.315 -0.1698,0.589 -0.2021,0.801 -0.0156,0.102 -0.0278,0.222 -0.0157,0.336 0.0085,0.079 0.0484,0.354 0.3194,0.489 0.006,0.004 0.0239,0.016 0.0576,0.041 0.0458,0.034 0.1062,0.082 0.1816,0.144 0.1508,0.124 0.3493,0.297 0.5908,0.514 0.4826,0.433 1.1246,1.031 1.8856,1.749 1.522,1.436 3.504,3.34 5.6,5.341 4.177,3.991 8.825,8.389 11.1,10.159 0.73,0.567 2.18,1.962 4.205,3.995 2.016,2.022 4.574,4.65 7.51,7.659 5.87,6.016 13.24,13.555 20.745,20.81 13.46,13.012 27.104,32.676 27.932,33.918 0.097,0.146 0.314,0.583 0.641,1.31 0.318,0.709 0.724,1.656 1.196,2.785 0.943,2.259 2.145,5.24 3.426,8.498 2.55,6.49 5.408,14.069 7.156,19.223 l 0.957,19.134 -35.46,-15.059 v -27.437 l -40.723,-27.148 -0.217,-0.145 -0.245,0.096 -26.1441,10.359 -56.4424,-75.256 C 56.1824,222.654 112.92,189.723 156.194,171.46 l 0.05,-0.022 0.045,-0.031 c 13.441,-9.501 30.468,-14.626 48.817,-16.776 z m -92.316,50.923 c 1.6,0.291 3.518,1.033 5.694,2.157 2.336,1.206 4.94,2.835 7.723,4.769 5.566,3.869 11.816,8.935 18.031,14.213 6.216,5.279 12.381,10.757 17.785,15.457 5.393,4.691 10.041,8.618 13.196,10.763 1.619,1.101 2.757,1.78 3.824,2.15 1.088,0.378 2.071,0.426 3.356,0.336 2.454,-0.171 6.086,-0.845 14.135,-0.895 l -15.744,22.424 -39.626,-10.402 c -0.378,-0.166 -0.812,-0.338 -1.22,-0.465 -0.4,-0.126 -0.845,-0.233 -1.191,-0.209 -0.165,0.011 -0.437,0.059 -0.62,0.29 -0.204,0.256 -0.164,0.557 -0.095,0.758 0.071,0.205 0.206,0.422 0.38,0.647 0.178,0.231 0.42,0.498 0.728,0.807 1.183,1.182 7.829,8.907 15.686,18.121 7.837,9.189 16.85,19.826 22.767,26.826 4.163,6.335 13.03,22.208 15.409,35.289 2.11,11.606 2.565,23.034 2.529,28.866 l -2.544,-5.088 -0.994,-19.893 -0.003,-0.07 -0.022,-0.065 -0.708,-2.05 c -1.761,-5.019 -4.246,-11.577 -6.489,-17.285 -1.282,-3.262 -2.486,-6.25 -3.433,-8.518 -0.474,-1.133 -0.883,-2.089 -1.207,-2.81 -0.316,-0.702 -0.568,-1.225 -0.721,-1.454 -0.837,-1.256 -14.529,-20.994 -28.068,-34.082 -7.494,-7.244 -14.855,-14.773 -20.725,-20.79 -2.934,-3.008 -5.498,-5.64 -7.518,-7.667 -2.009,-2.017 -3.508,-3.464 -4.298,-4.079 -2.225,-1.73 -6.827,-6.082 -11.025,-10.091 -2.092,-1.999 -4.078,-3.907 -5.603,-5.346 -0.763,-0.719 -1.413,-1.325 -1.905,-1.767 -0.245,-0.22 -0.4553,-0.403 -0.6217,-0.541 -0.0594,-0.049 -0.1214,-0.096 -0.1806,-0.141 0.0255,-0.137 0.0761,-0.337 0.1582,-0.601 0.1857,-0.597 0.5031,-1.453 0.9271,-2.515 0.846,-2.121 2.102,-5.024 3.537,-8.237 2.805,-6.282 6.285,-13.734 8.696,-18.812 z m 172.901,166.445 h -9.073 l -0.1,0.369 c -0.43,1.575 -1.003,3.35 -1.64,5.079 l 2.434,-22.206 z m 21.826,-27.788 0.954,10.493 -16.325,8.162 -10.586,-13.871 8.326,-24.121 z m -18.399,-20.178 -8.287,24.007 -1.776,-2.328 7.66,-24.316 z m 22.837,-2.393 -3.262,14.446 -18.032,-15.215 7.454,-14.76 z m -74.455,12.893 0.811,-0.641 c 2.018,-1.599 5.066,-4.319 7.666,-7.301 1.299,-1.491 2.496,-3.057 3.395,-4.589 0.895,-1.525 1.518,-3.055 1.626,-4.464 0.4,-5.194 2.5,-27.154 3.5,-37.49 l 0.026,-0.273 -0.216,-0.169 -16,-12.5 -0.808,-0.631 z m -6.774,-67.451 -19,12.5 -0.25,0.165 0.026,0.298 c 0.417,4.672 1.193,12.154 2.165,19.421 0.97,7.252 2.141,14.337 3.356,18.184 2.446,7.745 9.142,14.058 12.184,16.255 l 0.772,0.557 0.021,-0.95 1.5,-66 0.021,-0.953 z m -1.705,65.423 c -3.197,-2.54 -8.878,-8.296 -11.044,-15.155 -1.185,-3.752 -2.347,-10.752 -3.319,-18.016 -0.949,-7.098 -1.711,-14.405 -2.133,-19.082 l 17.953,-11.811 z m 24.455,-52.281 c -1.01,10.438 -3.077,32.077 -3.474,37.238 -0.092,1.191 -0.631,2.566 -1.492,4.033 -0.857,1.461 -2.012,2.976 -3.287,4.439 -2.224,2.55 -4.789,4.913 -6.723,6.516 v -63.926 z m 43.924,25.085 -7.524,14.9 -1.748,-1.475 7.775,-14.927 0.085,-0.081 z m 72.424,-70.882 -36.154,31.697 -0.017,0.015 -0.016,0.017 -34.723,36.683 -1.165,-0.834 33.619,-36.667 0.234,-0.254 -0.155,-0.308 -1,-2 -0.199,-0.399 -0.419,0.153 -42.159,15.375 -17.319,-22.129 23.787,-6.796 0.108,-0.031 0.085,-0.075 52.091,-46.139 z m -73.609,67.708 -0.166,0.156 -0.679,-0.762 z m -150.119,-123.341 45.5,62.5 0.044,0.06 0.06,0.046 22,16.5 0.718,-0.674 c -1.767,-2.692 -11.34,-14.771 -21.039,-26.987 -9.721,-12.244 -19.581,-24.642 -21.971,-28.027 -4.275,-6.057 -7.945,-8.619 -24.567,-24.078 z m 3.822,3.553 c 13.52,12.471 16.813,14.972 20.674,20.441 2.411,3.415 12.3,15.851 22.004,28.073 7.765,9.781 15.402,19.415 19.049,24.246 L 192.358,240.644 Z M 229.514,0 c 107.404,1.23711e-4 208.499,72.872 230.205,165.701 -16.235,-21.419 -41.508,-38.241 -72.031,-50.676 -5.285,-9.917 -8.995,-15.4657 -11.743,-18.2262 -1.379,-1.3853 -2.572,-2.1271 -3.654,-2.3134 -1.124,-0.1936 -2.034,0.2259 -2.778,0.9228 -0.725,0.6789 -1.326,1.6476 -1.879,2.6328 -0.568,1.0121 -1.083,2.037 -1.67,2.951 -0.585,0.911 -1.19,1.626 -1.882,2.024 -0.66,0.379 -1.441,0.492 -2.465,0.11 -71.567,-26.7351 -176.723,-24.2732 -256.053,-0.01 -0.802,0.245 -1.51,0.05 -2.211,-0.489 -0.724,-0.556 -1.407,-1.457 -2.088,-2.55 -0.682,-1.0929 -1.3215,-2.3085 -1.9984,-3.4969 -0.666,-1.1692 -1.3647,-2.3052 -2.1328,-3.1553 -0.7646,-0.8462 -1.6664,-1.4848 -2.7471,-1.5068 -1.0832,-0.0221 -2.1838,0.5778 -3.3388,1.8203 -2.2859,2.459 -5.0746,7.7467 -8.7198,17.4337 C 63.8683,120.758 46.6663,129.78 32.54,139.627 19.3057,148.852 8.73046,158.829 2.34082,170.72 18.7148,74.2428 118.679,0 229.514,0 Z m -10.948,153.575 c 7.672,-0.324 15.473,-0.212 23.249,0.244 -5.918,-0.091 -12.016,-0.16 -18.311,-0.215 -1.654,-0.014 -3.299,-0.023 -4.938,-0.029 z"
       id="path319" />
  </mask>
  <path
     d="m 18.196649,20.924708 c 13.609539,-4.868625 31.645634,-5.358286 43.904569,-0.002 0.220717,0.09651 0.408775,0.07198 0.569499,-0.03599 0.155397,-0.104551 0.277788,-0.281685 0.382646,-0.472692 0.104343,-0.190203 0.199919,-0.411188 0.292228,-0.603521 0.09488,-0.197723 0.187197,-0.367659 0.290508,-0.480855 0.100214,-0.109578 0.204388,-0.159763 0.330904,-0.134309 0.133737,0.02692 0.307699,0.141064 0.535464,0.408795 0.455187,0.53484 1.087257,1.635241 2.003648,3.649258 l 0.01478,0.03217 0.02871,0.01388 c 5.390905,2.563917 9.810929,6.052709 12.569039,10.501361 0.420634,2.25549 0.642212,4.567478 0.642212,6.91807 0,22.041797 -19.462853,39.101933 -40.307767,39.101933 -20.442845,0 -38.73428566,-17.185597 -39.4324412,-38.639495 8.3864548,-6.651281 19.2261272,-9.69171 33.8564002,-10.064072 -2.652392,0.526173 -5.102805,1.524235 -7.103186,3.175741 -7.499927,3.703324 -17.3364692,10.39118 -21.318272,13.27257 l -0.08007,0.05771 9.854608,15.368618 0.03945,0.06132 0.06111,-0.02815 4.513261,-2.091827 6.886251,5.369707 v 5.541815 l 0.05243,0.02614 6.245068,3.101954 0.673498,1.575304 0.0129,0.03036 0.02595,0.01488 c 0.419431,0.24107 1.041876,0.429263 1.732048,0.577242 0.692406,0.148382 1.460449,0.257558 2.176234,0.337379 0.715956,0.07982 1.380687,0.130287 1.8663,0.160647 0.242894,0.01528 0.441092,0.02534 0.578439,0.03177 0.06876,0.0032 0.12222,0.0054 0.158661,0.0069 0.01823,8.04e-4 0.03232,0.0014 0.0416,0.0018 0.0047,2.01e-4 0.0082,4.02e-4 0.01066,4.02e-4 h 0.0062 c 2.225225,0 3.096922,0.190605 6.192812,0 0.07014,-0.0042 0.132877,-0.05228 0.184791,-0.10817 0.0538,-0.0581 0.107952,-0.137525 0.16124,-0.230616 0.106921,-0.186181 0.218998,-0.441125 0.327295,-0.726028 0.193558,-0.509083 0.378864,-1.126136 0.504521,-1.649495 h 1.707124 l -0.06223,-0.145567 -1.633034,-3.820139 -1.999351,-4.676653 2.112116,3.236662 0.429746,0.658672 1.890882,2.898078 0.04315,0.06615 0.0636,-0.0374 2.922274,-1.709009 0.05243,-0.03056 -0.0054,-0.06837 -0.171898,-2.211658 -0.0027,-0.03358 -0.01942,-0.02513 -3.147632,-4.037886 -0.548185,-0.703107 -0.747929,-0.959457 0.801047,0.790366 0.436107,0.430469 3.259709,3.216959 0.108124,0.106562 0.03094,-0.161452 0.601644,-3.116428 0.0098,-0.05047 -0.0294,-0.0384 -2.492526,-3.271045 -0.284836,-0.37377 0.05639,-0.06233 0.282257,0.236647 3.957617,3.317288 0.0495,0.04162 0.04984,-0.04082 4.259986,-3.487988 4.255001,1.89117 0.04813,0.02132 0.03884,-0.03941 c 1.635098,-1.660956 4.104763,-4.388334 6.20072,-7.174823 1.048064,-1.392943 2.003991,-2.802977 2.715823,-4.102829 0.709939,-1.296636 1.184035,-2.496561 1.254687,-3.467078 l 0.0037,-0.05006 -0.03214,-0.03358 C 70.287364,43.949087 60.893976,37.174975 56.684012,34.294188 l -0.007,-0.0046 -0.0077,-0.0032 -0.31698,-0.129684 c -2.586556,-1.044507 -6.350959,-2.217691 -10.45572,-2.910745 5.512781,0.210913 10.113814,0.667922 14.477798,1.717253 6.194531,1.489653 11.914793,4.173201 19.085536,9.044883 l 0.08629,-0.174118 C 72.363553,36.954212 66.625756,34.261215 60.408878,32.766334 55.583175,31.605817 50.470917,31.168109 44.173935,30.987155 43.534816,30.903514 42.890369,30.83254 42.243859,30.777249 39.895727,30.576792 37.514762,30.578802 35.245532,30.889038 19.954825,31.102966 8.6872122,34.105394 0.01359743,40.943844 0.00451658,40.600433 0,40.255817 0,39.910396 0,38.21908 0.10957354,36.552293 0.32130217,34.916268 l 0.0141008,0.0078 C 1.3826991,32.349939 3.2671696,30.215286 5.6919513,28.238264 8.1168017,26.261242 11.074021,24.448284 14.260347,22.513083 l 0.02938,-0.01769 0.01159,-0.03619 c 0.63305,-1.973001 1.106166,-3.01031 1.475576,-3.47514 0.183794,-0.231259 0.329152,-0.304907 0.444511,-0.302173 0.115809,0.0028 0.229417,0.08286 0.348336,0.236789 0.118317,0.153187 0.230395,0.364682 0.34464,0.599259 0.112301,0.230616 0.227558,0.485821 0.346976,0.709701 0.119469,0.224181 0.250284,0.431274 0.400008,0.565984 0.153505,0.138128 0.332107,0.203875 0.535291,0.13109 z m 17.060743,10.16539 c 1.035,-0.01448 2.088566,-0.01628 3.161212,-0.0054 2.028058,0.02071 3.935957,0.05148 5.745188,0.103345 4.913544,0.645 9.517155,2.071923 12.440288,3.284716 4.204634,2.87757 13.533216,9.606442 17.394226,13.621609 -0.07942,0.911405 -0.529446,2.05805 -1.223916,3.326135 -0.705299,1.28799 -1.655211,2.689377 -2.70018,4.078299 -2.073266,2.756129 -4.514911,5.456163 -6.145883,7.116315 l -4.248985,-1.888556 -0.04263,-0.0189 -0.0373,0.03056 -4.247608,3.477532 -3.828006,-3.208916 5.949747,-7.351756 6.271542,-6.430902 0.05948,-0.06112 -0.0471,-0.0744 -4.125562,-6.534448 -0.05587,-0.08826 -0.07014,0.07278 -9.010055,9.334007 -4.192946,1.401387 -0.122736,0.04102 0.07873,0.11762 3.094171,4.624378 0.03851,0.0575 0.05862,-0.02493 7.233656,-3.085869 0.111046,0.260172 -5.752923,7.33909 -0.79761,-0.668524 -0.11414,0.148583 0.635165,0.833595 -0.02854,0.03177 -0.01031,0.01166 -0.0067,0.01508 -1.32568,2.97649 -1.722938,-1.700162 -0.118781,0.144562 1.599686,2.052219 -1.310725,4.864846 -2.563865,-3.929314 -0.145082,0.105958 2.395061,5.603138 -0.513633,5.483709 c -0.104858,0.274648 -0.210404,0.512702 -0.307698,0.682196 -0.0495,0.08625 -0.09506,0.151599 -0.13494,0.194626 -0.04194,0.04504 -0.06739,0.05449 -0.07719,0.05509 -3.092452,0.190404 -3.939739,-2.01e-4 -6.183873,-2.01e-4 -3.44e-4,0 -6.88e-4,0 -10e-4,0 -0.0022,0 -0.0059,-2.01e-4 -0.01031,-4.02e-4 -0.0093,-4.02e-4 -0.02321,-8.04e-4 -0.04125,-0.0016 -0.03611,-0.0014 -0.08938,-0.0036 -0.157802,-0.0069 -0.136831,-0.0064 -0.334172,-0.01669 -0.576032,-0.03176 -0.484066,-0.03036 -1.146218,-0.08043 -1.859081,-0.159843 -0.713035,-0.07942 -1.476092,-0.187992 -2.161622,-0.334966 -0.673012,-0.144138 -1.264514,-0.324488 -1.661599,-0.546056 l -0.06291,-0.147176 c 0.02716,-0.997459 -0.02132,-3.589322 -0.431636,-6.228435 -0.415651,-2.674297 -1.959126,-5.898093 -2.677146,-7.174622 l -0.0029,-0.0052 -0.0032,-0.0046 -1.834328,-2.533555 c -0.68364,-0.94257 -1.408708,-1.94043 -2.083065,-2.865306 -1.346652,-1.846736 -2.496136,-3.409775 -2.705508,-3.655068 -0.0502,-0.05851 -0.08612,-0.105758 -0.110875,-0.142954 -0.0019,-0.003 -0.0037,-0.006 -0.0056,-0.0088 0.02252,0.0054 0.04968,0.01347 0.08062,0.02493 0.06446,0.02352 0.135456,0.0565 0.197856,0.08887 l 0.0064,0.0034 0.0067,0.0018 6.875936,2.111129 0.05776,0.0179 0.03437,-0.0573 2.836323,-4.724908 0.09506,-0.158234 H 33.94997 c -1.507721,0 -2.185344,0.146573 -2.60787,0.181155 -0.209202,0.01709 -0.35222,0.0067 -0.508476,-0.0569 C 30.67366,51.028076 30.494369,50.905638 30.21641,50.684673 29.684384,50.261442 28.893308,49.480325 27.964369,48.535141 27.03732,47.59217 25.974989,46.48815 24.905609,45.42595 23.836058,44.36355 22.756363,43.339954 21.792701,42.556424 21.31087,42.164758 20.856714,41.831803 20.446048,41.583695 20.036587,41.336391 19.665286,41.170316 19.35054,41.11784 l -0.06258,-0.01046 -0.02716,0.06675 c -0.41565,1.022389 -1.030359,2.561504 -1.524223,3.855123 -0.246846,0.646609 -0.463954,1.2329 -0.610772,1.663168 -0.07327,0.214732 -0.129853,0.392871 -0.163837,0.520745 -0.0168,0.06333 -0.02919,0.118424 -0.03475,0.161049 -0.0027,0.02051 -0.0049,0.04463 -0.0027,0.06755 0.0015,0.01589 0.0083,0.07118 0.0549,0.09832 0.001,8.04e-4 0.0042,0.0032 0.0099,0.0082 0.0079,0.0069 0.01826,0.01648 0.03121,0.02895 0.02592,0.02493 0.06004,0.05972 0.101558,0.103345 0.08296,0.08706 0.193317,0.207293 0.324131,0.351654 0.26163,0.288722 0.602333,0.67154 0.962632,1.073861 0.71802,0.80243 1.517003,1.686692 1.908072,2.042568 0.125486,0.114 0.374739,0.394479 0.722833,0.803234 0.346548,0.406544 0.786263,0.934929 1.290957,1.539918 1.009043,1.209577 2.275935,2.725368 3.566032,4.184057 2.313753,2.616191 4.659134,6.569834 4.801467,6.819551 0.01667,0.02936 0.05398,0.117217 0.110185,0.263388 0.05467,0.142551 0.124456,0.332956 0.205591,0.559952 0.1621,0.454194 0.368723,1.053554 0.588924,1.708608 0.438341,1.304878 0.929626,2.828712 1.230105,3.864974 l 0.164508,3.847081 -6.095518,-3.027761 v -5.516471 l -7.000219,-5.458375 -0.0373,-0.02915 -0.04211,0.0193 -4.494129,2.08278 -9.7022641,-15.130996 c 4.03169,-2.911956 13.7847931,-9.53306 21.2235231,-13.205017 l 0.0086,-0.0044 0.0077,-0.0062 c 2.310486,-1.91027 5.237399,-2.940703 8.391564,-3.372981 z M 19.38842,41.328673 c 0.275038,0.05851 0.604738,0.207694 0.97879,0.433686 0.401554,0.242478 0.849178,0.570004 1.327571,0.958855 0.956786,0.7779 2.031151,1.79647 3.0995,2.857664 1.068521,1.061396 2.128275,2.162802 3.057213,3.107783 0.927048,0.943173 1.726032,1.732735 2.268371,2.164009 0.278303,0.221367 0.473924,0.357887 0.65734,0.432279 0.187026,0.076 0.356002,0.08565 0.576891,0.06755 0.421838,-0.03438 1.046173,-0.169896 2.429784,-0.179949 l -2.706368,4.508568 -6.811646,-2.091426 c -0.06498,-0.03338 -0.139582,-0.06796 -0.209716,-0.09349 -0.06876,-0.02534 -0.145255,-0.04685 -0.204732,-0.04202 -0.02837,0.0023 -0.07512,0.01187 -0.106577,0.05831 -0.03507,0.05148 -0.02818,0.11199 -0.01633,0.152403 0.01221,0.04121 0.03541,0.08485 0.06532,0.130086 0.0306,0.04644 0.0722,0.100128 0.125143,0.162255 0.203355,0.237654 1.345792,1.790841 2.696398,3.643407 1.347167,1.84754 2.896488,3.986215 3.913611,5.393634 0.715613,1.273715 2.239836,4.465138 2.648782,7.095204 0.362706,2.333501 0.44092,4.631214 0.434731,5.803796 l -0.437306,-1.02299 -0.170867,-3.999684 -5.16e-4,-0.01407 -0.0037,-0.01306 -0.121703,-0.412173 c -0.302733,-1.00913 -0.729901,-2.327681 -1.115469,-3.475331 -0.220374,-0.655857 -0.427339,-1.256624 -0.590127,-1.712628 -0.08148,-0.227801 -0.151787,-0.420014 -0.207482,-0.564978 -0.05432,-0.141145 -0.09764,-0.246299 -0.123939,-0.292342 -0.143879,-0.252531 -2.497512,-4.221052 -4.824843,-6.852524 -1.288208,-1.456478 -2.553551,-2.970258 -3.562595,-4.180036 -0.50435,-0.604788 -0.945097,-1.133978 -1.292332,-1.541527 -0.345344,-0.405537 -0.60302,-0.696471 -0.73882,-0.820123 -0.382473,-0.347833 -1.17355,-1.222846 -1.895179,-2.028896 -0.359612,-0.401918 -0.701002,-0.78554 -0.963147,-1.074866 -0.131159,-0.144562 -0.242893,-0.266404 -0.327467,-0.355273 -0.04211,-0.04424 -0.07826,-0.08102 -0.106869,-0.108773 -0.01021,-0.0099 -0.02087,-0.0193 -0.03104,-0.02835 0.0044,-0.02755 0.01308,-0.06776 0.0272,-0.120837 0.03192,-0.120032 0.08649,-0.29214 0.159367,-0.505665 0.145425,-0.426448 0.361329,-1.010125 0.608004,-1.656131 0.482175,-1.263059 1.080382,-2.761357 1.494828,-3.782339 z m 29.721405,33.465419 h -1.559634 l -0.01719,0.07419 c -0.07391,0.31667 -0.172415,0.673551 -0.281914,1.021184 l 0.418401,-4.464737 z m 3.751854,-5.587053 0.163992,2.109721 -2.806241,1.641052 -1.819718,-2.788903 1.431226,-4.849766 z m -3.162758,-4.056987 -1.424523,4.826845 -0.305291,-0.468068 1.316742,-4.888972 z m 3.925643,-0.481136 -0.560733,2.904511 -3.099671,-3.059127 1.281331,-2.967645 z m -12.798695,2.592265 0.139411,-0.128879 c 0.34689,-0.321495 0.870836,-0.868379 1.317772,-1.467939 0.223296,-0.299781 0.429058,-0.61464 0.583596,-0.922664 0.153849,-0.306616 0.26094,-0.614238 0.279505,-0.897532 0.06876,-1.044305 0.429748,-5.459581 0.601645,-7.537736 l 0.0045,-0.05489 -0.03713,-0.03397 -2.750374,-2.51325 -0.138894,-0.126869 z m -1.164439,-13.561693 -3.26607,2.513249 -0.04297,0.03317 0.0045,0.05992 c 0.07167,0.939351 0.205075,2.443682 0.37216,3.904785 0.166742,1.458087 0.368035,2.882595 0.57689,3.656073 0.420464,1.557209 1.571496,2.826501 2.09441,3.26823 l 0.132707,0.11199 0.0035,-0.191007 0.257849,-13.269956 0.0035,-0.191609 z m -0.293087,13.153943 c -0.549559,-0.510692 -1.526115,-1.667993 -1.898446,-3.047063 -0.203699,-0.754377 -0.403445,-2.161796 -0.570531,-3.622296 -0.163131,-1.427123 -0.294119,-2.896267 -0.366659,-3.836625 l 3.086091,-2.374719 z m 4.203775,-10.511614 c -0.173617,2.098664 -0.528931,6.449399 -0.597175,7.487069 -0.01581,0.239463 -0.108468,0.515921 -0.256473,0.810875 -0.147316,0.293749 -0.345859,0.598355 -0.565029,0.892505 -0.382302,0.512704 -0.823222,0.987808 -1.155674,1.310107 V 53.989416 Z m 7.550465,5.043589 -1.293363,2.995792 -0.300478,-0.296563 1.336509,-3.001221 0.01461,-0.01628 z m 12.44957,-14.25153 -6.214814,6.372997 -0.0029,0.003 -0.0027,0.0034 -5.968827,7.375481 -0.200262,-0.167684 5.779051,-7.372264 0.04022,-0.05107 -0.02664,-0.06193 -0.171899,-0.402119 -0.03421,-0.08022 -0.07203,0.03077 -7.247065,3.091296 -2.977109,-4.449255 4.088948,-1.366403 0.01856,-0.0062 0.01461,-0.01508 8.95436,-9.276704 z m -12.653269,13.613366 -0.02854,0.03137 -0.116719,-0.153208 z m -25.805216,-24.798933 7.821378,12.566246 0.0075,0.01206 0.01031,0.0093 3.781766,3.317489 0.123422,-0.135515 C 36.554366,51.176588 34.908783,48.747985 33.24154,46.291837 31.570516,43.830059 29.875598,41.337318 29.464761,40.65673 28.729895,39.43891 28.099028,38.923795 25.241733,35.815609 Z m 0.656996,0.714366 c 2.324066,2.507418 2.890127,3.010269 3.553828,4.109866 0.414447,0.686619 2.114349,3.187001 3.782452,5.644355 1.334791,1.966567 2.647579,3.903579 3.274492,4.874899 l -3.315404,-2.90793 z M 39.453089,0 C 57.915664,2.4873325e-5 75.293733,14.651639 79.02496,33.315831 76.234189,29.009328 71.8898,25.627098 66.642946,23.126919 c -0.908484,-1.993912 -1.546227,-3.109533 -2.018603,-3.66456 -0.237048,-0.278527 -0.442123,-0.427674 -0.628116,-0.465131 -0.193214,-0.03892 -0.349641,0.04542 -0.477534,0.185538 -0.124627,0.1365 -0.227938,0.331266 -0.322998,0.529351 -0.09764,0.203492 -0.186166,0.409559 -0.287071,0.593327 -0.100558,0.183166 -0.204558,0.326924 -0.323511,0.406945 -0.113453,0.0762 -0.247707,0.09892 -0.423731,0.02212 -12.302252,-5.375357 -30.3784,-4.880368 -44.0151,-0.002 -0.137862,0.04926 -0.259566,0.01005 -0.380068,-0.09832 C 17.64176,20.5224 17.524354,20.341245 17.407292,20.121486 17.290056,19.901748 17.180127,19.65734 17.06377,19.4184 c -0.114485,-0.235079 -0.23459,-0.463483 -0.366625,-0.634404 -0.131434,-0.170138 -0.286451,-0.298534 -0.472222,-0.302958 -0.186201,-0.0044 -0.375392,0.116173 -0.573935,0.36599 -0.392943,0.494406 -0.872316,1.55755 -1.498919,3.505218 -3.173211,1.92736 -6.1302068,3.741324 -8.5584952,5.721161 C 3.3186189,29.9282 1.5007521,31.934175 0.4023832,34.324979 3.2170442,14.927252 20.40073,0 39.453089,0 Z m -1.881944,30.877778 c 1.318805,-0.06514 2.659784,-0.04262 3.996465,0.04906 -1.017294,-0.01829 -2.06553,-0.03217 -3.147631,-0.04323 -0.284319,-0.0028 -0.567093,-0.0046 -0.848834,-0.0059 z"
     fill="#d9d9d9"
     id="path322"
     style="stroke-width:0.185908" />
  <path
     d="m 105.857,104.072 -0.292,-0.956 v 0 z m 255.41,-0.01 0.35,-0.936 v 0 z m 3.313,-0.179 0.498,0.867 v 0 z m 2.226,-2.351 0.841,0.541 v -10e-4 z m 1.7,-3.0017 0.872,0.4893 v 0 z m 1.69,-2.3916 -0.683,-0.7301 v 10e-5 z m 1.925,-0.668 0.17,-0.9855 v 0 z m 3.115,2.0332 0.709,-0.7055 v 0 z m 11.656,18.1501 -0.883,0.47 10e-4,0.003 z m 0.086,0.16 -0.882,0.473 0.17,0.317 0.333,0.136 z m 0.167,0.069 -0.379,0.925 0.002,10e-4 z m 73.119,52.23 0.977,-0.213 -0.045,-0.204 -0.123,-0.17 z M 464,202.521 h 1 v 0 z M 229.514,397 v 1 0 z M 0.120117,204.821 l -0.561216,-0.827 -0.459161,0.311 0.021101,0.554 z M 197.076,154.766 l 0.167,0.986 -0.189,-1.986 z m -41.322,15.795 0.389,0.921 0.099,-0.042 0.089,-0.062 z m -124.0167,66.013 0.5247,0.852 0.0014,-10e-4 z m -0.4658,0.287 -0.5247,-0.851 -0.9327,0.575 0.6574,0.876 z m 57.3281,76.438 -0.8,0.6 h 3e-4 z m 0.2295,0.305 -0.7997,0.601 0.4581,0.61 0.7095,-0.281 z m 0.3555,-0.14 0.3678,0.93 h 6e-4 z m 26.2554,-10.404 0.555,-0.832 -0.436,-0.291 -0.487,0.193 z m 40.06,26.707 h 1 v -0.536 l -0.445,-0.296 z m 0,27.563 h -1 v 0.661 l 0.608,0.259 z m 0.305,0.13 -0.392,0.92 h 10e-4 z m 36.33,15.428 0.894,-0.448 -0.164,-0.329 -0.339,-0.144 z m 3.918,7.835 0.895,-0.445 -0.001,-0.003 z m 0.075,0.151 -0.896,0.445 0.151,0.304 0.305,0.149 z m 0.151,0.074 0.441,-0.897 v -10e-4 z m 10.076,2.871 -0.18,0.984 v 0 z m 12.66,1.678 -0.095,0.996 v 0 z m 10.857,0.799 -0.053,0.998 v 0 z m 3.365,0.158 -0.04,0.999 v 0 z m 0.923,0.034 -0.034,1 v 0 z m 0.242,0.009 0.032,-0.999 v 0 z m 0.062,0.002 -0.031,1 h 0.016 0.015 z m 36.062,0 0.053,0.999 v 0 z m 1.075,-0.538 0.677,0.736 v -10e-4 z m 0.938,-1.147 0.83,0.558 v 0 z m 1.904,-3.611 0.914,0.406 v 0 z m 2.935,-8.204 v -1 h -0.758 l -0.205,0.73 z m 9.931,0 v 1 h 1.617 l -0.723,-1.447 z m -0.362,-0.724 0.895,-0.446 v -0.001 z m -9.5,-19 0.895,-0.447 v 0 z m -11.631,-23.26 0.795,-0.607 -1.689,1.054 z m 12.287,16.098 -0.795,0.607 v 0 z m 2.5,3.276 0.794,-0.607 v 0 z m 11,14.414 0.795,-0.607 h -0.001 z m 0.251,0.329 -0.796,0.606 0.503,0.659 0.741,-0.371 z m 0.37,-0.186 -0.448,-0.894 h -0.001 z m 17,-8.5 -0.446,-0.895 -0.002,0.001 z m 0.305,-0.152 0.446,0.895 0.613,-0.305 -0.063,-0.682 z m -0.031,-0.34 -0.996,0.091 v 10e-4 z m -1,-11 0.996,-0.09 v -0.003 z m -0.016,-0.167 0.996,-0.093 -0.031,-0.332 -0.224,-0.246 z m -0.113,-0.125 0.741,-0.671 -0.002,-0.003 z m -18.311,-20.083 -0.739,0.674 v 0 z m -3.189,-3.497 0.739,-0.674 v 0 z m -4.351,-4.772 0.644,-0.765 -1.383,1.438 z m 4.66,3.931 0.645,-0.764 v 0 z m 2.537,2.141 0.645,-0.764 v 0 z m 18.963,16 -0.645,0.764 v 0 z m 0.629,0.53 -0.645,0.765 1.259,1.061 0.361,-1.606 z m 0.18,-0.803 -0.975,-0.22 v 10e-4 z m 3.5,-15.5 0.976,0.221 v 0 z m 0.057,-0.251 0.975,0.221 0.114,-0.503 -0.343,-0.384 z m -0.171,-0.191 -0.746,0.665 v 0.001 z m -14.5,-16.269 -0.746,0.666 v 0 z m -1.657,-1.859 -0.688,-0.726 -0.704,0.667 0.645,0.724 z m 0.328,-0.31 0.583,-0.813 -0.671,-0.481 -0.599,0.567 z m 1.642,1.177 -0.583,0.813 v 0 z m 23.023,16.499 0.584,-0.812 -0.002,-0.001 z m 0.288,0.207 -0.584,0.812 0.577,0.414 0.581,-0.407 z m 0.29,-0.203 -0.573,-0.819 h -10e-4 z m 24.782,-17.348 0.356,-0.935 -0.495,-0.188 -0.434,0.303 z m 24.753,9.406 0.356,-0.935 h -10e-4 z m 0.28,0.106 -0.357,0.935 0.559,0.213 0.452,-0.392 z m 0.226,-0.196 0.655,0.756 10e-4,-10e-4 z m 36.072,-35.685 0.751,0.661 v 0 z m 15.799,-20.406 0.842,0.539 v 0 z m 7.299,-17.244 -0.996,-0.086 v 0.001 z m 0.022,-0.249 0.996,0.086 0.043,-0.498 -0.372,-0.333 z m -0.187,-0.167 0.667,-0.745 -10e-4,-0.001 z m -101.58,-68.059 0.505,-0.863 -0.009,-0.005 z m -0.041,-0.023 0.496,-0.868 -0.08,-0.046 -0.088,-0.031 z m -0.045,-0.016 -0.33,0.944 0.001,0.001 z m -1.844,-0.645 0.331,-0.944 -0.004,-0.001 z m -60.825,-14.477 0.033,-0.999 -0.176,1.989 z m 84.223,8.541 0.201,-0.979 v 0 z m 111.028,44.986 -0.502,0.864 0.865,0.503 0.502,-0.866 z m 0.502,-0.866 0.865,0.502 0.501,-0.864 -0.864,-0.502 z m -111.329,-45.099 0.201,-0.98 v 0 z m -94.445,-8.849 -0.112,0.994 0.043,0.005 0.044,0.001 z m -11.228,-1.044 0.073,-0.997 v 0 z m -40.712,0.556 0.012,1 0.052,-0.001 0.052,-0.006 z M 0.0791016,203.64 l -0.9995216,0.031 0.056016,1.811 1.502449,-1.013 z M 0,198.5 h -1 z m 1.86914,-24.839 0.42993,-0.903 -1.21693,-0.579 -0.201736,1.332 z m 0.08203,0.039 -0.42993,0.903 0.90309,0.43 0.42981,-0.903 z m 31.16113,-33.253 -0.5718,-0.82 v 0 z m 49.8457,-28.475 -0.4573,-0.89 -0.0035,0.002 z m 0.1709,-0.088 0.4574,0.889 0.3433,-0.177 0.1356,-0.361 z m 0.0674,-0.18 -0.9363,-0.351 v 0 z m 8.584,-17.2841 -0.7325,-0.6808 v 0 z m 2.5859,-1.5029 0.0203,-0.9998 v 0 z m 2.0264,1.1777 0.742,-0.6704 v 0 z m 2.0049,2.9805 0.8689,-0.4949 v 0 z m 2.0185,3.5298 -0.8485,0.53 v 0 z m 2.327,2.815 -0.609,0.793 v 0 z m 102.363,51.211 -0.011,-1 -0.053,0.001 -0.052,0.006 z m 18.39,-0.027 0.009,-0.999 v 0 z m 33.422,0.514 0.112,-0.994 -0.044,-0.004 -0.043,-0.002 z m 72.37,16.337 0.505,-0.863 -0.081,-0.048 -0.09,-0.031 z m 101.189,67.749 0.994,0.101 0.052,-0.508 -0.382,-0.34 z m -7.12,16.543 0.843,0.539 v 0 z m -15.708,20.284 0.751,0.661 v 0 z m -35.753,35.394 -0.356,0.935 0.56,0.212 0.452,-0.393 z m -24.718,-9.393 -0.357,0.934 0.002,10e-4 z m -0.248,-0.094 0.356,-0.935 -0.496,-0.189 -0.435,0.305 z m -0.217,0.152 0.573,0.819 0.002,-10e-4 z m -24.71,17.296 -0.583,0.813 0.576,0.412 0.58,-0.406 z m -22.269,-15.96 -0.726,-0.688 -0.788,0.833 0.932,0.668 z m 34.612,-36.565 -0.66,-0.752 -0.035,0.031 -0.032,0.034 z m 36.484,-31.985 0.659,0.752 0.001,-10e-4 z m 0.346,-0.304 0.66,0.752 0.69,-0.607 -0.546,-0.739 z m -0.274,-0.37 -0.804,0.594 v 0 z m -24,-32.5 0.805,-0.594 -10e-4,-0.001 z m -0.325,-0.439 0.804,-0.595 -0.65,-0.879 -0.818,0.726 z m -0.408,0.362 0.663,0.749 0.001,-0.001 z m -52.415,46.424 0.275,0.961 0.218,-0.062 0.17,-0.151 z m -24.392,6.97 -0.274,-0.962 h -0.001 z m -0.714,0.204 -0.274,-0.962 -1.429,0.409 0.916,1.169 z m 0.458,0.585 0.788,-0.617 v 0 z m 18,23 0.788,-0.616 v -0.001 z m 0.224,0.286 -0.788,0.616 0.447,0.572 0.683,-0.249 z m 0.341,-0.124 0.342,0.939 h 0.001 z m 42.081,-15.348 0.895,-0.447 -0.399,-0.798 -0.839,0.306 z m 0.646,1.294 0.738,0.676 0.465,-0.507 -0.308,-0.616 z m -33.467,36.502 -0.583,0.813 0.721,0.516 0.599,-0.653 z m -4.64,-3.325 0.583,-0.813 -0.728,-0.522 -0.599,0.667 z m -0.664,0.739 -0.744,-0.668 -0.598,0.665 0.595,0.668 z m 3.695,4.146 0.69,0.723 0.7,-0.667 -0.643,-0.722 z m -0.166,0.158 -0.69,-0.724 -0.005,0.005 z m -0.06,0.058 -0.696,-0.718 -0.115,0.111 -0.074,0.142 z m -0.039,0.075 -0.885,-0.466 -0.002,0.004 z m -7.712,14.804 -0.645,0.765 0.955,0.805 0.577,-1.108 z m -10.023,-8.456 0.645,-0.764 -0.716,-0.604 -0.649,0.675 z m -0.691,0.719 -0.721,-0.693 -0.649,0.675 0.631,0.692 z m 9.306,10.207 0.953,0.301 0.173,-0.549 -0.387,-0.426 z m -7.625,24.196 -0.794,0.607 1.169,1.532 0.579,-1.838 z m -14.915,-19.543 0.795,-0.606 -0.551,-0.723 -0.772,0.481 z m -0.844,0.527 -0.529,-0.849 -0.773,0.481 0.407,0.815 z m 13.933,27.868 0.994,0.109 0.032,-0.293 -0.131,-0.263 z m -2.988,27.274 0.913,0.408 0.064,-0.143 0.017,-0.156 z m -1.79,3.393 0.83,0.557 v 0 z m -0.785,0.968 0.677,0.735 v 0 z m -0.449,0.274 0.052,0.999 v 0 z m -35.974,-10e-4 -0.027,1 h 0.013 0.014 z m -0.006,0 0.031,-0.999 v -10e-4 z m -0.06,-0.002 0.031,-0.999 v 0 z m -0.24,-0.008 0.035,-0.999 v 0 z m -0.918,-0.034 -0.04,0.999 v 0 z m -3.351,-0.158 -0.054,0.998 v 0 z m -10.815,-0.795 -0.094,0.995 v 0 z m -12.575,-1.666 -0.18,0.984 v 0 z m -9.666,-2.716 -0.894,0.447 0.153,0.308 0.311,0.148 z m -0.366,-0.732 -1,-0.032 -0.008,0.253 0.114,0.226 z m -2.511,-30.978 0.984,-0.179 v 0 z m -15.574,-35.684 -0.837,0.547 0.002,0.002 z m -0.017,-0.026 0.837,-0.547 -0.031,-0.049 -0.037,-0.044 z m -0.019,-0.023 0.768,-0.64 -0.005,-0.006 z m -10.671,-12.601 0.763,-0.646 v -0.001 z m -12.118,-14.251 0.761,-0.649 v 0 z m -15.739,-18.179 0.707,-0.707 v 0 z m -0.645,-0.711 -0.791,0.611 v 0 z m -0.032,-0.044 0.204,-0.979 -2.589,-0.541 1.584,2.119 z m 0.469,0.124 0.299,-0.954 v -10e-4 z m 1.151,0.442 0.408,-0.913 -0.002,-10e-4 z m 0.037,0.017 -0.408,0.912 0.08,0.036 0.085,0.022 z m 0.039,0.009 0.254,-0.967 -0.011,-0.003 z m 40,10.5 0.256,-0.966 -0.002,-10e-4 z m 0.336,0.089 -0.256,0.967 0.674,0.178 0.4,-0.57 z m 0.2,-0.285 -0.818,-0.575 v 0.001 z m 16.5,-23.5 -0.818,-0.575 v 0 z m 0.553,-0.787 0.818,0.575 1.106,-1.575 h -1.924 z m -0.962,0 v -1 0 z m -15.171,0.901 0.07,0.998 v 0 z m -2.958,-0.283 -0.328,0.945 v 0 z m -3.59,-2.031 -0.562,0.827 v 0 z m -13.101,-10.691 -0.657,0.755 z m -17.794,-15.464 0.647,-0.763 v 0 z m -18.109,-14.272 0.571,-0.821 v 0 z m -7.834,-4.838 0.459,-0.888 v 0 z m -6.373,-2.317 0.142,-0.99 h -0.001 z m -0.364,-0.052 0.141,-0.99 -0.728,-0.103 -0.316,0.663 z m -0.158,0.332 -0.903,-0.43 v 0.001 z m -8.867,19.174 -0.913,-0.408 v 0 z m -3.5531,8.272 -0.9287,-0.37 v 0 z m -0.9531,2.59 -0.9549,-0.297 v 0.001 z m -0.2021,0.801 -0.9886,-0.151 v 0 z m -0.0157,0.336 -0.9944,0.106 1e-4,0.001 z m 0.3194,0.489 0.5507,-0.834 -0.0499,-0.033 -0.0536,-0.027 z m 0.0576,0.041 0.5935,-0.805 h -10e-5 z m 0.1816,0.144 0.6365,-0.771 v 0 z m 0.5908,0.514 0.6686,-0.745 h -0.001 z m 1.8856,1.749 0.686,-0.728 v 0 z m 5.6,5.341 -0.691,0.723 v 0 z m 11.1,10.159 -0.614,0.789 v 0 z m 4.205,3.995 0.709,-0.706 v 0 z m 7.51,7.659 -0.716,0.698 v 0 z m 20.745,20.81 0.695,-0.719 v 0 z m 27.932,33.918 0.832,-0.554 v 0 z m 0.641,1.31 -0.913,0.41 v 0 z m 1.196,2.785 0.923,-0.385 v 0 z m 3.426,8.498 0.93,-0.366 v 0 z m 7.156,19.223 0.999,-0.05 -0.007,-0.139 -0.045,-0.132 z m 0.957,19.134 -0.391,0.92 1.469,0.624 -0.079,-1.594 z M 156.5,356.668 h -1 v 0.662 l 0.609,0.258 z m 0,-27.437 h 1 v -0.535 l -0.445,-0.297 z m -40.723,-27.148 -0.555,0.831 0.001,0.001 z m -0.217,-0.145 0.555,-0.832 -0.436,-0.291 -0.488,0.193 z m -0.245,0.096 -0.368,-0.93 v 0 z m -26.1441,10.359 -0.8,0.6 0.4583,0.611 0.71,-0.282 z m -56.4424,-75.256 -0.5254,-0.851 -0.9314,0.575 0.6568,0.876 z m 123.4655,-65.677 0.389,0.921 0.007,-0.003 z m 0.05,-0.022 0.396,0.919 0.093,-0.04 0.082,-0.058 z m 0.045,-0.031 0.571,0.821 0.006,-0.004 z m -43.499,34.147 0.179,-0.984 -0.754,-0.137 -0.328,0.692 z m 5.694,2.157 0.459,-0.889 v 0 z m 7.723,4.769 0.571,-0.821 v 0 z m 18.031,14.213 0.648,-0.762 v 0 z m 17.785,15.457 0.657,-0.754 v 0 z m 13.196,10.763 -0.563,0.827 v 0 z m 3.824,2.15 -0.328,0.945 v 0 z m 3.356,0.336 0.07,0.998 v 0 z m 14.135,-0.895 0.819,0.575 1.114,-1.587 -1.939,0.012 z m -15.744,22.424 -0.254,0.967 0.673,0.177 0.399,-0.57 z m -39.626,-10.402 -0.403,0.915 0.072,0.032 0.077,0.021 z m -1.22,-0.465 0.3,-0.955 v 0 z m -1.191,-0.209 -0.068,-0.998 h -0.001 z m -0.62,0.29 -0.782,-0.624 -0.001,0.001 z m -0.095,0.758 -0.945,0.326 v 10e-4 z m 0.38,0.647 -0.791,0.612 v 0 z m 0.728,0.807 0.708,-0.708 v 0 z m 15.686,18.121 0.761,-0.649 v 0 z m 22.767,26.826 0.835,-0.549 -0.033,-0.051 -0.039,-0.046 z m 15.409,35.289 0.984,-0.179 v 0 z m 2.529,28.866 -0.894,0.447 1.894,-0.441 z m -2.544,-5.088 -0.999,0.05 0.011,0.21 0.094,0.187 z m -0.994,-19.893 -0.999,0.042 v 0.008 z m -0.003,-0.07 0.999,-0.042 -0.006,-0.145 -0.047,-0.137 z m -0.022,-0.065 0.945,-0.325 v -0.002 z m -0.708,-2.05 0.945,-0.326 -0.002,-0.005 z m -6.489,-17.285 -0.93,0.366 v 0 z m -3.433,-8.518 0.922,-0.385 v 0 z m -1.207,-2.81 0.912,-0.41 v 0 z m -0.721,-1.454 0.832,-0.555 v 0 z m -28.068,-34.082 0.695,-0.719 v 0 z m -20.725,-20.79 -0.716,0.698 v 0 z m -7.518,-7.667 0.709,-0.706 v 0 z m -4.298,-4.079 0.614,-0.789 v 0 z m -11.025,-10.091 -0.691,0.723 v 0 z m -5.603,-5.346 0.686,-0.727 v 0 z m -1.905,-1.767 0.668,-0.744 v 0 z m -0.6217,-0.541 0.6367,-0.771 v 0 z m -0.1806,-0.141 -0.983,-0.184 -0.1131,0.606 0.4901,0.373 z m 0.1582,-0.601 -0.9549,-0.297 h -1e-4 z m 0.9271,-2.515 -0.9291,-0.371 v 0 z m 3.537,-8.237 -0.913,-0.408 v 0 z m 181.597,147.633 v 1 h 1.619 l -0.724,-1.447 z m -9.073,0 v -1 h -0.764 l -0.201,0.737 z m -0.1,0.369 0.964,0.263 v 0 z m -1.64,5.079 -0.994,-0.109 1.932,0.455 z m 2.434,-22.206 0.894,-0.447 -1.519,-3.037 -0.37,3.375 z m 30.205,-11.03 0.995,-0.091 -0.03,-0.334 -0.226,-0.249 z m 0.954,10.493 0.447,0.895 0.61,-0.306 -0.061,-0.679 z m -16.325,8.162 -0.795,0.607 0.502,0.658 0.74,-0.37 z m -10.586,-13.871 -0.946,-0.326 -0.175,0.507 0.326,0.426 z m 8.326,-24.121 0.739,-0.674 -1.135,-1.244 -0.55,1.592 z m -0.768,-0.841 0.945,0.326 0.194,-0.561 -0.4,-0.438 z m -8.287,24.007 -0.795,0.607 1.132,1.483 0.608,-1.764 z m -1.776,-2.328 -0.954,-0.301 -0.156,0.495 0.315,0.413 z m 7.66,-24.316 0.739,-0.673 -1.171,-1.285 -0.522,1.658 z m 25.24,0.244 0.976,0.22 0.113,-0.502 -0.342,-0.384 z m -3.262,14.446 -0.645,0.764 1.258,1.062 0.363,-1.606 z m -18.032,-15.215 -0.893,-0.451 -0.356,0.706 0.604,0.509 z m 7.454,-14.76 0.747,-0.665 -0.977,-1.096 -0.662,1.311 z M 237.5,334.533 h -1 v 2.067 l 1.621,-1.283 z m 0.811,-0.641 0.62,0.784 v 0 z m 7.666,-7.301 0.753,0.657 v 0 z m 3.395,-4.589 0.863,0.506 v 0 z m 1.626,-4.464 -0.997,-0.077 v 0 z m 3.5,-37.49 0.995,0.096 v 0 z m 0.026,-0.273 0.996,0.097 0.053,-0.547 -0.434,-0.338 z m -0.216,-0.169 -0.616,0.788 0.001,10e-4 z m -16,-12.5 -0.617,0.788 h 0.001 z m -0.808,-0.631 0.616,-0.788 -1.616,-1.264 v 2.052 z m -6.774,0.607 -0.55,-0.835 v 0 z m -19,12.5 -0.55,-0.835 h -10e-4 z m -0.25,0.165 -0.551,-0.834 -0.498,0.328 0.052,0.594 z m 0.026,0.298 -0.996,0.088 v 0.001 z m 2.165,19.421 -0.991,0.132 v 0 z m 3.356,18.184 -0.953,0.302 v 0 z m 12.184,16.255 -0.585,0.811 v 0 z m 0.772,0.557 -0.586,0.811 1.542,1.112 0.043,-1.9 z m 0.021,-0.95 -1,-0.023 v 0 z m 1.5,-66 1,0.022 v 0 z m 0.021,-0.953 1,0.022 0.043,-1.905 -1.592,1.047 z m -2.5,65.946 -0.622,0.783 1.576,1.252 0.046,-2.012 z m -11.044,-15.155 -0.954,0.301 v 0 z m -3.319,-18.016 -0.991,0.133 v 0 z m -2.133,-19.082 -0.549,-0.835 -0.5,0.329 0.053,0.596 z m 17.953,-11.811 0.999,0.023 0.044,-1.906 -1.593,1.048 z m 22.998,11.783 0.995,0.096 0.053,-0.546 -0.433,-0.338 z m -3.474,37.238 0.997,0.077 v 0 z m -1.492,4.033 0.862,0.506 v 0 z m -3.287,4.439 0.753,0.657 v 0 z m -6.723,6.516 h -1 v 2.128 l 1.638,-1.358 z m 0,-63.926 0.616,-0.788 -1.616,-1.262 v 2.05 z m 58.9,36.785 0.893,0.45 0.307,-0.608 -0.453,-0.508 z m -7.524,14.9 -0.645,0.764 0.967,0.816 0.571,-1.129 z m -1.748,-1.475 -0.887,-0.462 -0.37,0.71 0.612,0.517 z m 7.775,-14.927 -0.69,-0.724 -0.12,0.115 -0.077,0.147 z m 0.085,-0.081 0.747,-0.666 -0.689,-0.772 -0.748,0.714 z m 73.836,-69.299 0.659,0.752 0.692,-0.607 -0.546,-0.739 z m -36.154,31.697 -0.659,-0.752 -0.003,0.002 z m -0.017,0.015 -0.661,-0.75 -0.034,0.03 -0.032,0.033 z m -0.016,0.017 0.726,0.688 10e-4,-10e-4 z m -34.723,36.683 -0.582,0.813 0.709,0.508 0.599,-0.634 z m -1.165,-0.834 -0.737,-0.676 -0.763,0.832 0.918,0.657 z m 33.619,-36.667 -0.736,-0.677 -0.001,10e-4 z m 0.234,-0.254 0.736,0.677 0.467,-0.508 -0.31,-0.617 z m -0.155,-0.308 -0.894,0.448 v 0.001 z m -1,-2 -0.895,0.447 10e-4,10e-4 z m -0.199,-0.399 0.895,-0.446 -0.399,-0.8 -0.84,0.307 z m -0.419,0.153 0.343,0.94 10e-4,-0.001 z m -42.159,15.375 -0.788,0.617 0.448,0.572 0.683,-0.249 z m -17.319,-22.129 -0.275,-0.961 -1.428,0.408 0.915,1.17 z m 23.787,-6.796 0.274,0.962 0.003,-0.001 z m 0.108,-0.031 0.277,0.961 0.217,-0.062 0.169,-0.15 z m 0.085,-0.075 0.663,0.749 v 0 z m 52.091,-46.139 0.804,-0.594 -0.649,-0.879 -0.818,0.725 z m -50.207,99.4 0.685,0.728 0.885,-0.833 -0.988,-0.708 z m -0.166,0.156 -0.747,0.665 0.684,0.768 0.748,-0.705 z m -0.679,-0.762 0.583,-0.812 -1.329,1.478 z m -149.274,-122.735 -0.663,-0.749 -0.68,0.603 0.534,0.735 z m 45.5,62.5 0.809,-0.587 -0.001,-0.002 z m 0.044,0.06 -0.81,0.588 0.087,0.12 0.119,0.089 z m 0.06,0.046 -0.604,0.797 0.004,0.003 z m 22,16.5 -0.6,0.8 0.673,0.505 0.612,-0.576 z m 0.718,-0.674 0.685,0.728 0.612,-0.575 -0.461,-0.702 z m -21.039,-26.987 -0.783,0.622 v 0 z m -21.971,-28.027 -0.817,0.577 v 0 z m -24.567,-24.078 0.681,-0.732 -0.665,-0.619 -0.679,0.602 z m 3.077,4.213 0.678,-0.735 -1.486,1.323 z m 20.674,20.441 0.817,-0.577 v 0 z m 22.004,28.073 -0.783,0.622 v 0 z m 19.049,24.246 -0.6,0.8 1.398,-1.402 z m -19.287,-14.463 -0.808,0.588 0.088,0.121 0.12,0.091 z M 229.514,0 v -1 0 z m 230.205,165.701 -0.797,0.604 1.77,-0.832 z m -72.031,-50.676 -0.882,0.471 0.17,0.319 0.335,0.136 z m -11.743,-18.2262 0.709,-0.7055 v 0 z m -3.654,-2.3134 0.17,-0.9855 v -1e-4 z m -2.778,0.9228 -0.684,-0.73 v 0 z m -1.879,2.6328 0.872,0.4894 v 0 z m -1.67,2.951 0.841,0.54 v 0 z m -1.882,2.024 0.498,0.867 v 0 z m -2.465,0.11 -0.35,0.937 v 0 z m -256.053,-0.01 0.293,0.957 v -10e-4 z m -2.211,-0.489 -0.61,0.793 v 0 z m -2.088,-2.55 -0.849,0.529 v 0 z m -1.9984,-3.4969 0.8694,-0.495 v 0 z m -2.1328,-3.1553 0.742,-0.6704 v 0 z m -2.7471,-1.5068 0.0204,-0.9998 v 0 z m -3.3388,1.8203 -0.7324,-0.6809 h -1e-4 z m -8.7198,17.4337 0.4609,0.887 0.3401,-0.176 0.135,-0.359 z m -49.7881,28.455 -0.5718,-0.82 v 0 z m -30.19918,31.093 -0.9859,-0.168 1.86678,0.641 z m 216.22518,-17.145 -0.042,-0.999 0.039,1.999 z m 23.249,0.244 -0.015,1 0.074,-1.998 z m -18.311,-0.215 0.009,-0.999 v 0 z m -117.647,-49.532 0.293,0.957 c 79.014,-24.1673 183.705,-26.5761 254.767,-0.03 l 0.35,-0.937 0.35,-0.936 C 290.05,76.3908 184.894,78.8527 105.565,103.116 Z m 255.41,-0.01 -0.35,0.937 c 1.544,0.577 2.951,0.446 4.161,-0.249 l -0.498,-0.867 -0.498,-0.867 c -0.66,0.379 -1.441,0.492 -2.465,0.11 z m 3.313,-0.179 0.498,0.867 c 1.117,-0.641 1.935,-1.689 2.569,-2.677 l -0.841,-0.541 -0.842,-0.54 c -0.584,0.911 -1.19,1.626 -1.882,2.024 z m 2.226,-2.351 0.841,0.54 c 0.628,-0.978 1.225,-2.1513 1.731,-3.0524 l -0.872,-0.4893 -0.872,-0.4894 c -0.568,1.0121 -1.083,2.0371 -1.67,2.9511 z m 1.7,-3.0017 0.872,0.4893 c 0.551,-0.9815 1.024,-1.7037 1.502,-2.1509 l -0.684,-0.73 -0.683,-0.73 c -0.725,0.6788 -1.326,1.647 -1.879,2.6322 z m 1.69,-2.3916 0.684,0.73 c 0.418,-0.392 0.723,-0.4725 1.071,-0.4125 l 0.17,-0.9855 0.17,-0.9855 c -1.123,-0.1933 -2.032,0.2254 -2.778,0.9234 z m 1.925,-0.668 -0.17,0.9855 c 0.474,0.0816 1.304,0.4752 2.577,1.7532 l 0.708,-0.7055 0.709,-0.7055 c -1.379,-1.3853 -2.572,-2.1269 -3.654,-2.3132 z m 3.115,2.0332 -0.708,0.7055 c 2.533,2.5446 6.151,7.8976 11.481,17.9146 l 0.883,-0.47 0.882,-0.469 c -5.33,-10.018 -9.066,-15.6113 -11.829,-18.3866 z m 11.656,18.1501 -0.882,0.473 0.086,0.16 0.882,-0.473 0.881,-0.472 -0.086,-0.161 z m 0.086,0.16 -0.379,0.926 0.167,0.068 0.379,-0.925 0.378,-0.926 -0.167,-0.068 z m 0.167,0.069 -0.377,0.926 c 31.26,12.711 56.789,29.969 72.686,51.891 l 0.81,-0.587 0.809,-0.587 c -16.192,-22.33 -42.089,-39.776 -73.552,-52.57 z m 73.119,52.23 -0.977,0.213 c 2.432,11.15 3.713,22.578 3.713,34.195 h 1 1 c 0,-11.765 -1.297,-23.336 -3.759,-34.621 z M 464,202.521 h -1 c 0,54.448 -28.115,102.801 -71.396,137.57 C 348.321,374.863 289.921,396 229.514,396 v 1 1 C 290.37,398 349.213,376.711 392.857,341.65 436.503,306.587 465,257.7 465,202.521 Z M 229.514,397 v -1 C 110.982,396 5.15529,310.815 1.11939,204.783 l -0.999273,0.038 -0.999276,0.038 C 3.20782,312.234 110.197,398 229.514,398 Z M 0.120117,204.821 0.681334,205.649 C 49.2443,172.72 112.083,157.616 197.098,155.765 l -0.022,-0.999 -0.022,-1 C 111.849,155.62 48.5706,170.76 -0.441099,203.994 Z M 197.076,154.766 196.909,153.78 c -15.529,2.633 -29.937,7.639 -41.732,15.964 l 0.577,0.817 0.577,0.817 c 11.48,-8.103 25.58,-13.026 40.912,-15.626 z m -41.322,15.795 -0.389,-0.922 C 111.662,188.09 54.3866,221.385 31.2112,235.724 l 0.5261,0.85 0.5261,0.851 C 55.4153,223.1 112.586,189.871 156.143,171.482 Z m -124.0167,66.013 -0.5247,-0.851 -0.4658,0.287 0.5247,0.851 0.5247,0.852 0.4658,-0.287 z m -0.4658,0.287 -0.8,0.6 57.3281,76.438 0.8,-0.6 0.8,-0.6 -57.3281,-76.438 z m 57.3281,76.438 -0.7997,0.6 0.2295,0.306 0.7997,-0.601 0.7997,-0.6 -0.2295,-0.306 z m 0.2295,0.305 0.3679,0.93 0.3554,-0.14 -0.3678,-0.93 -0.3679,-0.93 -0.3555,0.141 z m 0.3555,-0.14 0.3684,0.93 26.256,-10.405 -0.369,-0.929 -0.368,-0.93 -26.2558,10.404 z m 26.2554,-10.404 -0.554,0.832 40.059,26.707 0.555,-0.832 0.555,-0.832 -40.06,-26.707 z m 40.06,26.707 h -1 v 27.563 h 1 1 v -27.563 z m 0,27.563 -0.392,0.92 0.305,0.13 0.392,-0.92 0.392,-0.92 -0.305,-0.13 z m 0.305,0.13 -0.391,0.92 36.33,15.428 0.391,-0.92 0.391,-0.921 -36.33,-15.427 z m 36.33,15.428 -0.895,0.447 3.918,7.835 0.895,-0.447 0.894,-0.448 -3.918,-7.835 z m 3.918,7.835 -0.896,0.445 0.075,0.151 0.896,-0.445 0.896,-0.445 -0.076,-0.151 z m 0.075,0.151 -0.44,0.898 0.151,0.074 0.44,-0.898 0.441,-0.898 -0.152,-0.074 z m 0.151,0.074 -0.441,0.898 c 2.571,1.262 6.305,2.218 10.337,2.957 l 0.18,-0.984 0.181,-0.983 c -4,-0.733 -7.506,-1.651 -9.816,-2.785 z m 10.076,2.871 -0.18,0.984 c 4.066,0.745 8.566,1.292 12.745,1.69 l 0.095,-0.996 0.094,-0.995 c -4.148,-0.396 -8.585,-0.936 -12.573,-1.666 z m 12.66,1.678 -0.095,0.996 c 4.182,0.398 8.064,0.65 10.899,0.801 l 0.053,-0.998 0.054,-0.999 c -2.816,-0.15 -6.669,-0.4 -10.817,-0.795 z m 10.857,0.799 -0.053,0.998 c 1.417,0.076 2.575,0.127 3.378,0.159 l 0.04,-0.999 0.04,-0.999 c -0.796,-0.032 -1.944,-0.082 -3.351,-0.158 z m 3.365,0.158 -0.04,0.999 c 0.402,0.016 0.716,0.027 0.929,0.035 l 0.034,-1 0.034,-0.999 c -0.21,-0.007 -0.52,-0.018 -0.917,-0.034 z m 0.923,0.034 -0.034,1 c 0.089,0.003 0.194,0.007 0.245,0.009 l 0.031,-1 0.032,-0.999 c -0.059,-0.002 -0.117,-0.005 -0.24,-0.009 z m 0.242,0.009 -0.031,1 c 0.025,0 0.048,10e-4 0.062,0.002 l 0.031,-1 0.031,-1 c -0.014,0 -0.032,-0.001 -0.061,-0.001 z m 0.062,0.002 v 1 h 0.036 v -1 -1 h -0.036 z m 0.036,0 v 1 c 12.835,0 18.047,0.948 36.079,-0.001 l -0.053,-0.999 -0.052,-0.999 c -17.989,0.947 -22.919,-10e-4 -35.974,-10e-4 z m 36.026,0 0.053,0.999 c 0.759,-0.04 1.34,-0.471 1.699,-0.801 l -0.677,-0.736 -0.678,-0.736 c -0.244,0.225 -0.392,0.272 -0.449,0.275 z m 1.075,-0.538 0.677,0.735 c 0.394,-0.363 0.759,-0.83 1.091,-1.324 l -0.83,-0.558 -0.83,-0.557 c -0.289,0.43 -0.554,0.754 -0.786,0.968 z m 0.938,-1.147 0.83,0.558 c 0.669,-0.996 1.348,-2.323 1.988,-3.763 l -0.914,-0.406 -0.913,-0.406 c -0.621,1.395 -1.246,2.603 -1.821,3.46 z m 1.904,-3.611 0.914,0.406 c 1.147,-2.58 2.241,-5.696 2.984,-8.34 l -0.963,-0.27 -0.963,-0.27 c -0.719,2.562 -1.782,5.585 -2.885,8.068 z m 2.935,-8.204 v 1 h 9.931 v -1 -1 h -9.931 z m 9.931,0 0.894,-0.447 -0.361,-0.723 -0.895,0.446 -0.894,0.447 0.361,0.724 z m -0.362,-0.724 0.895,-0.447 -9.5,-19 -0.895,0.447 -0.894,0.448 9.5,19 z m -9.5,-19 0.895,-0.447 -11.631,-23.261 -0.895,0.448 -0.894,0.447 11.631,23.261 z m -11.631,-23.26 -0.795,0.606 12.287,16.099 0.795,-0.607 0.794,-0.606 -12.286,-16.099 z m 12.287,16.098 -0.795,0.607 2.5,3.275 0.795,-0.606 0.794,-0.607 -2.5,-3.275 z m 2.5,3.276 -0.795,0.606 11,14.414 0.795,-0.606 0.794,-0.607 -11,-14.414 z m 11,14.414 -0.796,0.606 0.251,0.329 0.796,-0.606 0.795,-0.607 -0.251,-0.329 z m 0.251,0.329 0.448,0.894 0.37,-0.186 -0.448,-0.894 -0.449,-0.894 -0.37,0.186 z m 0.37,-0.186 0.447,0.895 17,-8.5 -0.447,-0.895 -0.448,-0.894 -17,8.5 z m 17,-8.5 0.446,0.895 0.305,-0.152 -0.446,-0.895 -0.446,-0.895 -0.305,0.152 z m 0.305,-0.152 0.996,-0.092 -0.031,-0.339 -0.996,0.091 -0.996,0.092 0.032,0.339 z m -0.031,-0.34 0.996,-0.09 -1,-11 -0.996,0.09 -0.996,0.091 1,11 z m -1,-11 0.996,-0.093 -0.016,-0.167 -0.996,0.093 -0.995,0.093 0.015,0.167 z m -0.016,-0.167 0.741,-0.671 -0.113,-0.125 -0.741,0.671 -0.741,0.672 0.113,0.125 z m -0.113,-0.125 0.739,-0.674 -18.311,-20.083 -0.739,0.674 -0.739,0.674 18.311,20.083 z m -18.311,-20.083 0.739,-0.674 -3.189,-3.497 -0.739,0.674 -0.739,0.674 3.189,3.497 z m -3.189,-3.497 0.739,-0.674 -4.351,-4.772 -0.739,0.674 -0.739,0.673 4.351,4.773 z m -4.351,-4.772 -0.645,0.764 4.66,3.932 0.645,-0.765 0.645,-0.764 -4.661,-3.932 z m 4.66,3.931 -0.645,0.765 2.537,2.14 0.645,-0.764 0.645,-0.764 -2.537,-2.141 z m 2.537,2.141 -0.645,0.764 18.963,16 0.645,-0.764 0.645,-0.764 -18.963,-16 z m 18.963,16 -0.645,0.764 0.629,0.531 0.645,-0.765 0.644,-0.764 -0.629,-0.531 z m 0.629,0.53 0.975,0.22 0.181,-0.803 -0.976,-0.22 -0.975,-0.219 -0.181,0.803 z m 0.18,-0.803 0.976,0.221 3.5,-15.5 -0.976,-0.221 -0.975,-0.22 -3.5,15.5 z m 3.5,-15.5 0.976,0.221 0.056,-0.251 -0.975,-0.221 -0.976,-0.22 -0.056,0.251 z m 0.057,-0.251 0.746,-0.666 -0.171,-0.191 -0.746,0.666 -0.746,0.666 0.171,0.191 z m -0.171,-0.191 0.747,-0.665 -14.5,-16.269 -0.747,0.665 -0.746,0.666 14.5,16.268 z m -14.5,-16.269 0.747,-0.665 -1.658,-1.859 -0.746,0.665 -0.747,0.665 1.658,1.86 z m -1.657,-1.859 0.687,0.726 0.328,-0.31 -0.687,-0.726 -0.687,-0.727 -0.329,0.311 z m 0.328,-0.31 -0.583,0.812 1.642,1.178 0.583,-0.813 0.582,-0.812 -1.641,-1.178 z m 1.642,1.177 -0.583,0.813 23.023,16.499 0.583,-0.813 0.582,-0.813 -23.023,-16.499 z m 23.023,16.499 -0.584,0.812 0.288,0.207 0.584,-0.812 0.584,-0.812 -0.288,-0.207 z m 0.288,0.207 0.574,0.819 0.29,-0.203 -0.574,-0.819 -0.574,-0.819 -0.29,0.203 z m 0.29,-0.203 0.574,0.819 24.782,-17.348 -0.574,-0.819 -0.573,-0.82 -24.782,17.349 z m 24.782,-17.348 -0.355,0.934 24.753,9.407 0.355,-0.935 0.355,-0.935 -24.752,-9.406 z m 24.753,9.406 -0.356,0.934 0.279,0.107 0.357,-0.935 0.356,-0.934 -0.28,-0.107 z m 0.28,0.106 0.654,0.756 0.227,-0.196 -0.655,-0.756 -0.655,-0.756 -0.226,0.196 z m 0.226,-0.196 0.656,0.755 c 9.536,-8.282 23.937,-21.879 36.167,-35.779 l -0.751,-0.661 -0.75,-0.66 c -12.157,13.816 -26.49,27.351 -35.978,35.59 z m 36.072,-35.685 0.751,0.661 c 6.114,-6.949 11.712,-14.003 15.89,-20.528 l -0.842,-0.539 -0.842,-0.539 c -4.103,6.406 -9.629,13.376 -15.707,20.285 z m 15.799,-20.406 0.842,0.539 c 4.148,-6.476 7.021,-12.616 7.453,-17.698 l -0.996,-0.085 -0.996,-0.085 c -0.39,4.573 -3.032,10.368 -7.145,16.79 z m 7.299,-17.244 0.996,0.086 0.022,-0.249 -0.996,-0.086 -0.997,-0.086 -0.021,0.249 z m 0.022,-0.249 0.667,-0.745 -0.187,-0.167 -0.667,0.745 -0.667,0.745 0.187,0.167 z m -0.187,-0.167 0.666,-0.746 C 409.467,217.762 354.731,184.022 330.258,169.704 l -0.505,0.863 -0.505,0.864 c 24.509,14.338 79.063,47.98 101.419,67.941 z m -101.58,-68.059 0.496,-0.868 -0.041,-0.023 -0.496,0.868 -0.496,0.868 0.041,0.024 z m -0.041,-0.023 0.328,-0.945 -0.044,-0.015 -0.329,0.944 -0.329,0.945 0.045,0.015 z m -0.045,-0.016 0.33,-0.944 -1.843,-0.645 -0.331,0.944 -0.33,0.944 1.844,0.645 z m -1.844,-0.645 0.327,-0.945 c -15.104,-5.214 -37.064,-11.065 -61.009,-14.521 l -0.143,0.989 -0.143,0.99 c 23.813,3.437 45.651,9.257 60.642,14.432 z m -60.825,-14.477 -0.033,1 c 32.044,1.048 58.747,3.318 84.054,8.521 l 0.202,-0.98 0.201,-0.979 c -25.466,-5.236 -52.296,-7.512 -84.391,-8.561 z m 84.223,8.541 -0.202,0.98 c 35.906,7.382 69.081,20.681 110.728,44.87 l 0.502,-0.864 0.502,-0.865 c -41.784,-24.27 -75.163,-37.665 -111.329,-45.1 z m 111.028,44.986 0.865,0.501 0.502,-0.865 -0.865,-0.502 -0.865,-0.501 -0.502,0.865 z m 0.502,-0.866 0.502,-0.864 C 421.4,182.893 387.92,169.45 351.623,161.988 l -0.201,0.98 -0.202,0.979 c 36.036,7.409 69.313,20.755 111.029,44.985 z m -111.329,-45.099 0.201,-0.98 c -28.159,-5.789 -57.969,-7.969 -94.622,-8.869 l -0.024,1 -0.025,1 c 36.611,0.899 66.282,3.075 94.268,8.828 z m -94.445,-8.849 0.111,-0.994 c -3.73,-0.418 -7.491,-0.772 -11.266,-1.047 l -0.073,0.997 -0.073,0.998 c 3.748,0.273 7.483,0.625 11.189,1.04 z m -11.228,-1.044 0.073,-0.997 c -13.707,-1.001 -27.623,-0.992 -40.901,0.56 l 0.116,0.993 0.116,0.993 c 13.124,-1.534 26.91,-1.545 40.523,-0.551 z m -40.712,0.556 -0.012,-1 C 115.982,153.696 50.2083,168.643 -0.479842,202.81 l 0.5589436,0.83 0.5589434,0.829 C 50.8656,170.612 116.189,155.694 205.049,154.631 Z M 0.0791016,203.64 1.07862,203.609 C 1.02612,201.911 1,200.208 1,198.5 H 0 -1 c 0,1.729 0.026431,3.452 0.07958,5.171 z M 0,198.5 h 1 c 0,-8.361 0.63359,-16.601 1.85788,-24.689 l -0.98874,-0.15 -0.988736,-0.15 C -0.358722,181.697 -1,190.037 -1,198.5 Z m 1.86914,-24.839 -0.42993,0.903 0.08203,0.039 0.42993,-0.903 0.42994,-0.903 -0.08204,-0.039 z m 0.08203,0.039 0.90297,0.43 C 8.83966,161.552 19.6424,151.056 33.6841,141.268 l -0.5718,-0.821 -0.5718,-0.82 c -14.17,9.877 -25.29275,20.616 -31.4923,33.643 z m 31.16113,-33.253 0.5718,0.821 c 14.0434,-9.789 31.1862,-18.777 49.7348,-28.409 l -0.4609,-0.887 -0.4608,-0.888 c -18.5238,9.619 -35.7874,18.666 -49.9567,28.543 z m 49.8457,-28.475 0.4574,0.889 0.1709,-0.088 -0.4574,-0.889 -0.4573,-0.89 -0.1709,0.088 z m 0.1709,-0.088 0.9363,0.351 0.0674,-0.18 -0.9363,-0.351 -0.9363,-0.351 -0.0674,0.18 z m 0.0674,-0.18 0.9362,0.351 c 3.6871,-9.824 6.3823,-14.8049 8.3802,-16.9543 l -0.7324,-0.6808 -0.7325,-0.6808 c -2.3,2.4744 -5.1093,7.8119 -8.7878,17.6139 z m 8.584,-17.2841 0.7324,0.6809 c 0.9832,-1.0577 1.5743,-1.1893 1.8332,-1.184 l 0.0203,-0.9998 0.0203,-0.9998 c -1.0832,-0.022 -2.1834,0.5791 -3.3387,1.8219 z m 2.5859,-1.5029 -0.0203,0.9998 c 0.2673,0.0054 0.6866,0.1642 1.3047,0.8483 l 0.742,-0.6704 0.742,-0.6704 c -0.7655,-0.8472 -1.668,-1.4851 -2.7481,-1.5071 z m 2.0264,1.1777 -0.742,0.6704 c 0.6084,0.6735 1.2144,1.6402 1.8779,2.805 l 0.869,-0.4949 0.8689,-0.4949 c -0.6656,-1.1685 -1.3636,-2.3056 -2.1318,-3.156 z m 2.0049,2.9805 -0.869,0.4949 c 0.6301,1.1062 1.3311,2.4294 2.039,3.5649 l 0.8485,-0.53 0.849,-0.529 c -0.682,-1.0925 -1.322,-2.3078 -1.9986,-3.4957 z m 2.0185,3.5298 -0.8485,0.53 c 0.7085,1.135 1.5465,2.293 2.5665,3.078 l 0.609,-0.793 0.61,-0.793 c -0.724,-0.556 -1.407,-1.458 -2.088,-2.551 z m 2.327,2.815 -0.609,0.793 c 1.084,0.833 2.453,1.294 4.016,0.816 l -0.293,-0.957 -0.292,-0.956 c -0.802,0.245 -1.51,0.051 -2.212,-0.489 z m 102.363,51.211 0.012,1 c 6.014,-0.072 12.136,-0.08 18.369,-0.027 l 0.009,-1 0.009,-0.999 c -6.247,-0.055 -12.382,-0.046 -18.41,0.026 z m 18.39,-0.027 -0.009,1 c 11.795,0.103 22.888,0.256 33.406,0.514 l 0.025,-1 0.025,-1 c -10.533,-0.258 -21.638,-0.411 -33.438,-0.513 z m 33.422,0.514 -0.112,0.994 c 28.501,3.199 55.207,10.276 72.148,16.286 l 0.334,-0.943 0.334,-0.942 c -17.069,-6.056 -43.925,-13.171 -72.592,-16.389 z m 72.37,16.337 -0.505,0.863 c 24.477,14.322 78.655,47.741 101.029,67.633 l 0.665,-0.747 0.664,-0.747 C 408.593,218.409 354.235,184.893 329.793,170.592 Z m 101.189,67.749 -0.995,-0.101 c -0.437,4.289 -2.946,9.826 -6.967,16.105 l 0.842,0.539 0.843,0.539 c 4.057,-6.335 6.785,-12.203 7.271,-16.981 z m -7.12,16.543 -0.842,-0.539 c -4.065,6.347 -9.555,13.274 -15.616,20.163 l 0.75,0.66 0.751,0.661 c 6.096,-6.929 11.659,-13.94 15.8,-20.406 z m -15.708,20.284 -0.75,-0.66 c -12.025,13.666 -26.196,27.063 -35.66,35.299 l 0.657,0.755 0.656,0.754 c 9.512,-8.278 23.751,-21.738 35.848,-35.487 z m -35.753,35.394 0.355,-0.935 -24.718,-9.393 -0.355,0.935 -0.355,0.935 24.717,9.393 z m -24.718,-9.393 0.356,-0.934 -0.248,-0.095 -0.356,0.935 -0.357,0.934 0.248,0.094 z m -0.248,-0.094 -0.575,-0.819 -0.217,0.153 0.575,0.818 0.575,0.818 0.217,-0.152 z m -0.217,0.152 -0.574,-0.819 -24.709,17.295 0.573,0.82 0.573,0.819 24.71,-17.296 z m -24.71,17.296 0.582,-0.813 -22.268,-15.96 -0.583,0.813 -0.582,0.813 22.268,15.96 z m -22.269,-15.96 0.727,0.687 34.611,-36.564 -0.726,-0.688 -0.727,-0.687 -34.611,36.564 z m 34.612,-36.565 0.659,0.752 36.484,-31.985 -0.659,-0.752 -0.659,-0.752 -36.485,31.985 z m 36.484,-31.985 0.66,0.751 0.346,-0.303 -0.66,-0.752 -0.66,-0.751 -0.346,0.304 z m 0.346,-0.304 0.804,-0.594 -0.273,-0.37 -0.805,0.594 -0.804,0.594 0.273,0.37 z m -0.274,-0.37 0.805,-0.594 -24,-32.5 -0.805,0.594 -0.804,0.594 24,32.5 z m -24,-32.5 0.804,-0.595 -0.325,-0.439 -0.804,0.595 -0.804,0.595 0.326,0.439 z m -0.325,-0.439 -0.664,-0.748 -0.408,0.362 0.664,0.748 0.664,0.748 0.408,-0.362 z m -0.408,0.362 -0.663,-0.749 -52.415,46.424 0.663,0.749 0.663,0.748 52.415,-46.423 z m -52.415,46.424 -0.275,-0.962 -24.391,6.97 0.274,0.962 0.275,0.961 24.392,-6.97 z m -24.392,6.97 -0.275,-0.962 -0.713,0.204 0.274,0.962 0.275,0.961 0.714,-0.204 z m -0.714,0.204 -0.787,0.616 0.458,0.585 0.787,-0.616 0.788,-0.617 -0.458,-0.585 z m 0.458,0.585 -0.787,0.616 18,23 0.787,-0.616 0.788,-0.617 -18,-23 z m 18,23 -0.787,0.615 0.223,0.287 0.788,-0.616 0.788,-0.616 -0.224,-0.286 z m 0.224,0.286 0.342,0.939 0.341,-0.124 -0.342,-0.939 -0.342,-0.94 -0.341,0.124 z m 0.341,-0.124 0.343,0.939 42.081,-15.347 -0.343,-0.94 -0.343,-0.939 -42.081,15.347 z m 42.081,-15.348 -0.895,0.447 0.647,1.294 0.894,-0.447 0.895,-0.447 -0.646,-1.294 z m 0.646,1.294 -0.737,-0.676 -33.467,36.502 0.737,0.676 0.737,0.676 33.468,-36.502 z m -33.467,36.502 0.582,-0.813 -4.639,-3.325 -0.583,0.813 -0.583,0.813 4.64,3.325 z m -4.64,-3.325 -0.744,-0.668 -0.664,0.739 0.744,0.668 0.744,0.668 0.664,-0.739 z m -0.664,0.739 -0.747,0.665 3.696,4.146 0.746,-0.665 0.747,-0.666 -3.696,-4.145 z m 3.695,4.146 -0.69,-0.724 -0.166,0.158 0.69,0.724 0.69,0.724 0.166,-0.159 z m -0.166,0.158 -0.695,-0.719 -0.061,0.059 0.696,0.718 0.695,0.719 0.061,-0.059 z m -0.06,0.058 -0.885,-0.465 -0.039,0.074 0.885,0.466 0.885,0.465 0.039,-0.074 z m -0.039,0.075 -0.887,-0.462 -7.712,14.804 0.887,0.462 0.887,0.462 7.712,-14.804 z m -7.712,14.804 0.645,-0.764 -10.023,-8.456 -0.645,0.764 -0.645,0.765 10.023,8.456 z m -10.023,-8.456 -0.72,-0.693 -0.692,0.719 0.721,0.693 0.721,0.693 0.691,-0.719 z m -0.691,0.719 -0.739,0.674 9.306,10.207 0.739,-0.674 0.739,-0.674 -9.306,-10.207 z m 9.306,10.207 -0.954,-0.301 -7.624,24.197 0.953,0.3 0.954,0.301 7.624,-24.196 z m -7.625,24.196 0.795,-0.606 -14.915,-19.543 -0.795,0.606 -0.794,0.607 14.915,19.543 z m -14.915,-19.543 -0.528,-0.848 -0.845,0.526 0.529,0.849 0.529,0.848 0.844,-0.526 z m -0.844,0.527 -0.895,0.447 13.934,27.868 0.894,-0.447 0.895,-0.447 -13.934,-27.869 z m 13.933,27.868 -0.994,-0.109 -2.988,27.274 0.994,0.109 0.994,0.109 2.988,-27.274 z m -2.988,27.274 -0.913,-0.408 c -0.601,1.345 -1.187,2.469 -1.707,3.243 l 0.83,0.558 0.83,0.557 c 0.613,-0.912 1.253,-2.154 1.873,-3.542 z m -1.79,3.393 -0.83,-0.558 c -0.267,0.398 -0.481,0.651 -0.633,0.79 l 0.678,0.736 0.677,0.735 c 0.314,-0.288 0.628,-0.684 0.938,-1.146 z m -0.785,0.968 -0.678,-0.736 c -0.075,0.069 -0.106,0.083 -0.09,0.075 0.008,-0.004 0.032,-0.016 0.071,-0.029 0.036,-0.012 0.103,-0.03 0.195,-0.035 l 0.053,0.999 0.052,0.999 c 0.407,-0.022 0.771,-0.259 1.074,-0.538 z m -0.449,0.274 -0.053,-0.999 c -17.968,0.946 -22.755,-0.002 -35.921,-0.002 v 1 1 c 12.945,0 18.016,0.948 36.026,0 z m -35.974,-10e-4 0.027,-1 c -0.008,0 -0.015,0 -0.021,0 -0.005,0 -0.01,0 -0.013,0 -0.003,0 -0.006,0 -0.007,0 -10e-4,0 -0.003,0 -0.002,0 0,0 0.001,0 0.003,0 0.001,0 0.004,0 0.007,0 0.006,0 0.017,0 0.031,10e-4 l -0.031,0.999 -0.031,1 c 0.015,0 0.027,0 0.034,0 0.007,0 0.013,0 0.013,0 0.001,0 0,0 0,0 -0.001,0 -0.003,0 -0.006,0 -0.003,0 -0.007,0 -0.012,0 -0.005,0 -0.011,0 -0.019,0 z m -0.006,0 0.031,-1 c -0.015,0 -0.027,0 -0.06,-0.001 l -0.031,0.999 -0.032,1 c 0.021,0 0.049,10e-4 0.062,0.002 z m -0.06,-0.002 0.031,-0.999 c -0.054,-0.002 -0.133,-0.005 -0.236,-0.008 l -0.035,0.999 -0.034,1 c 0.107,0.003 0.189,0.006 0.242,0.008 z m -0.24,-0.008 0.035,-0.999 c -0.209,-0.007 -0.517,-0.018 -0.913,-0.034 l -0.04,0.999 -0.04,0.999 c 0.4,0.016 0.712,0.027 0.924,0.035 z m -0.918,-0.034 0.04,-0.999 c -0.791,-0.032 -1.935,-0.083 -3.338,-0.158 l -0.053,0.999 -0.054,0.998 c 1.413,0.076 2.565,0.127 3.365,0.159 z m -3.351,-0.158 0.053,-0.999 c -2.806,-0.15 -6.643,-0.398 -10.773,-0.792 l -0.095,0.996 -0.094,0.995 c 4.164,0.397 8.031,0.647 10.855,0.798 z m -10.815,-0.795 0.095,-0.996 c -4.133,-0.393 -8.54,-0.93 -12.49,-1.654 l -0.18,0.984 -0.18,0.984 c 4.027,0.738 8.497,1.281 12.661,1.677 z m -12.575,-1.666 0.18,-0.984 c -3.896,-0.714 -7.229,-1.592 -9.415,-2.635 l -0.431,0.903 -0.43,0.903 c 2.434,1.161 5.982,2.076 9.916,2.797 z m -9.666,-2.716 0.895,-0.447 -0.367,-0.733 -0.894,0.448 -0.894,0.447 0.366,0.732 z m -0.366,-0.732 0.999,0.032 c 0.161,-5.017 -0.125,-17.981 -2.526,-31.189 l -0.984,0.179 -0.984,0.179 c 2.372,13.043 2.652,25.863 2.495,30.767 z m -2.511,-30.978 0.984,-0.179 c -2.455,-13.504 -11.526,-29.675 -15.723,-36.055 l -0.835,0.55 -0.835,0.549 c 4.156,6.319 13.044,22.216 15.425,35.314 z m -15.574,-35.684 0.837,-0.548 -0.017,-0.025 -0.837,0.547 -0.837,0.547 0.017,0.026 z m -0.017,-0.026 0.769,-0.64 -0.02,-0.023 -0.768,0.64 -0.768,0.64 0.019,0.023 z m -0.019,-0.023 0.763,-0.646 -10.671,-12.601 -0.763,0.646 -0.763,0.646 10.671,12.601 z m -10.671,-12.601 0.763,-0.647 c -3.978,-4.688 -8.196,-9.652 -12.12,-14.253 l -0.761,0.649 -0.761,0.649 c 3.922,4.6 8.14,9.562 12.116,14.249 z m -12.118,-14.251 0.761,-0.649 c -7.81,-9.158 -14.538,-16.981 -15.793,-18.237 l -0.707,0.707 -0.708,0.708 c 1.182,1.182 7.829,8.907 15.686,18.12 z m -15.739,-18.179 0.707,-0.707 c -0.274,-0.273 -0.452,-0.475 -0.561,-0.616 l -0.791,0.612 -0.791,0.611 c 0.179,0.231 0.42,0.499 0.728,0.808 z m -0.645,-0.711 0.791,-0.612 c 0.005,0.007 0.008,0.011 0.004,0.005 -0.001,-0.002 -0.002,-0.003 -0.004,-0.005 -0.001,-0.002 -0.003,-0.005 -0.005,-0.008 -0.004,-0.005 -0.01,-0.014 -0.017,-0.023 l -0.801,0.599 -0.801,0.599 c -0.002,-0.003 -0.003,-0.004 -0.002,-0.003 0.002,0.003 0.002,0.003 0.007,0.01 0.006,0.008 0.02,0.027 0.037,0.049 z m -0.032,-0.044 -0.205,0.979 c 0.098,0.02 0.224,0.052 0.374,0.099 l 0.3,-0.954 0.299,-0.955 c -0.209,-0.065 -0.399,-0.114 -0.564,-0.148 z m 0.469,0.124 -0.3,0.954 c 0.329,0.103 0.706,0.251 1.045,0.402 l 0.406,-0.914 0.406,-0.914 c -0.387,-0.172 -0.837,-0.35 -1.258,-0.482 z m 1.151,0.442 -0.408,0.913 0.037,0.016 0.408,-0.912 0.408,-0.913 -0.037,-0.017 z m 0.037,0.017 -0.243,0.97 0.04,0.01 0.242,-0.971 0.243,-0.97 -0.039,-0.01 z m 0.039,0.009 -0.254,0.968 40,10.5 0.254,-0.968 0.254,-0.967 -40,-10.5 z m 40,10.5 -0.256,0.967 0.336,0.089 0.256,-0.967 0.256,-0.966 -0.336,-0.089 z m 0.336,0.089 0.818,0.575 0.201,-0.285 -0.819,-0.575 -0.818,-0.574 -0.2,0.285 z m 0.2,-0.285 0.819,0.575 16.5,-23.5 -0.819,-0.575 -0.818,-0.575 -16.5,23.5 z m 16.5,-23.5 0.819,0.575 0.552,-0.787 -0.818,-0.575 -0.818,-0.575 -0.553,0.787 z m 0.553,-0.787 v -1 H 197.5 v 1 1 h 0.962 z m -0.962,0 v -1 c -8.813,0 -12.875,0.738 -15.241,0.904 l 0.07,0.997 0.07,0.998 c 2.549,-0.178 6.372,-0.899 15.101,-0.899 z m -15.171,0.901 -0.07,-0.997 c -1.148,0.08 -1.828,0.024 -2.56,-0.23 l -0.328,0.944 -0.328,0.945 c 1.087,0.378 2.07,0.426 3.356,0.336 z m -2.958,-0.283 0.328,-0.944 c -0.794,-0.276 -1.742,-0.817 -3.355,-1.914 l -0.563,0.827 -0.562,0.827 c 1.619,1.101 2.757,1.778 3.824,2.149 z m -3.59,-2.031 0.563,-0.827 c -3.037,-2.065 -7.593,-5.908 -13.008,-10.618 l -0.656,0.754 -0.657,0.755 c 5.393,4.69 10.042,8.618 13.196,10.763 z m -13.101,-10.691 0.656,-0.754 c -5.381,-4.68 -11.576,-10.184 -17.803,-15.473 l -0.647,0.763 -0.648,0.762 c 6.216,5.279 12.381,10.757 17.785,15.457 z m -17.794,-15.464 0.647,-0.763 c -6.228,-5.289 -12.538,-10.405 -18.185,-14.33 l -0.571,0.821 -0.57,0.821 c 5.565,3.869 11.816,8.934 18.031,14.213 z m -18.109,-14.272 0.571,-0.821 c -2.823,-1.963 -5.505,-3.645 -7.946,-4.905 l -0.459,0.888 -0.458,0.889 c 2.336,1.206 4.939,2.836 7.722,4.77 z m -7.834,-4.838 0.459,-0.888 c -2.422,-1.251 -4.698,-2.134 -6.69,-2.419 l -0.142,0.99 -0.141,0.99 c 1.669,0.238 3.713,1.006 6.056,2.216 z m -6.373,-2.317 0.141,-0.99 -0.364,-0.052 -0.141,0.99 -0.141,0.99 0.365,0.052 z m -0.364,-0.052 -0.903,-0.43 -0.158,0.332 0.903,0.43 0.903,0.43 0.158,-0.332 z m -0.158,0.332 -0.903,-0.429 c -2.42,5.089 -6,12.751 -8.877,19.195 l 0.913,0.408 0.913,0.408 c 2.868,-6.424 6.441,-14.071 8.857,-19.152 z m -8.867,19.174 -0.913,-0.408 c -1.438,3.219 -2.7069,6.15 -3.5688,8.31 l 0.9287,0.37 0.9291,0.371 c 0.846,-2.121 2.102,-5.023 3.537,-8.235 z m -3.5531,8.272 -0.9287,-0.37 c -0.4285,1.073 -0.7696,1.989 -0.9793,2.663 l 0.9549,0.297 0.9549,0.297 c 0.1858,-0.597 0.5033,-1.454 0.9273,-2.516 z m -0.9531,2.59 -0.9549,-0.296 c -0.1019,0.327 -0.1919,0.659 -0.2358,0.946 l 0.9886,0.151 0.9885,0.151 c 0.0209,-0.137 0.075,-0.354 0.1686,-0.655 z m -0.2021,0.801 -0.9886,-0.151 c -0.0196,0.129 -0.0473,0.35 -0.0215,0.593 l 0.9944,-0.106 0.9944,-0.106 c 0.0014,0.013 10e-5,0.012 0.0012,-0.005 10e-4,-0.017 0.0036,-0.041 0.0086,-0.074 z m -0.0157,0.336 -0.9943,0.107 c 0.0137,0.127 0.0992,0.893 0.8664,1.277 l 0.4473,-0.895 0.4472,-0.894 c 0.1064,0.053 0.1704,0.141 0.1996,0.203 0.0237,0.05 0.0274,0.088 0.0281,0.095 z m 0.3194,0.489 -0.5508,0.835 c -0.0044,-0.003 -0.007,-0.005 -0.0077,-0.005 -9e-4,-10e-4 -6e-4,-10e-4 9e-4,0 0.0029,0.002 0.01,0.008 0.0218,0.016 l 0.5934,-0.805 0.5934,-0.805 c -0.0423,-0.031 -0.0752,-0.054 -0.1003,-0.07 z m 0.0576,0.041 -0.5935,0.805 c 0.0258,0.019 0.0709,0.054 0.1386,0.11 l 0.6365,-0.771 0.6365,-0.771 c -0.083,-0.069 -0.1587,-0.129 -0.2246,-0.178 z m 0.1816,0.144 -0.6365,0.771 c 0.1357,0.112 0.3229,0.274 0.5593,0.487 l 0.668,-0.744 0.6676,-0.745 c -0.246,-0.221 -0.4561,-0.404 -0.6219,-0.54 z m 0.5908,0.514 -0.668,0.744 c 0.4727,0.424 1.1076,1.015 1.8676,1.732 l 0.686,-0.727 0.686,-0.728 c -0.761,-0.719 -1.411,-1.324 -1.903,-1.766 z m 1.8856,1.749 -0.686,0.727 c 1.519,1.433 3.496,3.333 5.595,5.337 l 0.691,-0.723 0.691,-0.723 c -2.092,-1.998 -4.08,-3.907 -5.605,-5.346 z m 5.6,5.341 -0.691,0.723 c 4.158,3.972 8.851,8.416 11.177,10.225 l 0.614,-0.789 0.614,-0.79 c -2.224,-1.73 -6.826,-6.083 -11.023,-10.092 z m 11.1,10.159 -0.614,0.789 c 0.669,0.52 2.07,1.863 4.111,3.911 l 0.708,-0.705 0.709,-0.706 c -2.01,-2.017 -3.509,-3.464 -4.3,-4.079 z m 4.205,3.995 -0.708,0.705 c 2.01,2.018 4.565,4.641 7.502,7.652 l 0.716,-0.698 0.716,-0.698 c -2.934,-3.008 -5.497,-5.64 -7.517,-7.667 z m 7.51,7.659 -0.716,0.698 c 5.87,6.016 13.249,13.564 20.766,20.831 l 0.695,-0.719 0.695,-0.719 c -7.494,-7.244 -14.854,-14.772 -20.724,-20.789 z m 20.745,20.81 -0.695,0.719 c 13.38,12.934 26.976,32.526 27.795,33.754 l 0.832,-0.555 0.832,-0.554 c -0.837,-1.256 -14.529,-20.994 -28.069,-34.083 z m 27.932,33.918 -0.832,0.555 c -0.002,-0.003 0.012,0.018 0.046,0.082 0.032,0.059 0.072,0.138 0.123,0.241 0.1,0.204 0.231,0.484 0.391,0.842 l 0.913,-0.41 0.912,-0.41 c -0.315,-0.701 -0.568,-1.224 -0.721,-1.454 z m 0.641,1.31 -0.913,0.41 c 0.314,0.697 0.716,1.635 1.186,2.761 l 0.923,-0.386 0.923,-0.385 c -0.473,-1.133 -0.883,-2.089 -1.207,-2.81 z m 1.196,2.785 -0.923,0.386 c 0.94,2.249 2.139,5.224 3.418,8.478 l 0.931,-0.366 0.93,-0.366 c -1.282,-3.262 -2.486,-6.25 -3.433,-8.517 z m 3.426,8.498 -0.931,0.366 c 2.548,6.485 5.399,14.046 7.14,19.178 l 0.947,-0.321 0.947,-0.321 c -1.756,-5.177 -4.62,-12.773 -7.173,-19.268 z m 7.156,19.223 -0.999,0.05 0.957,19.134 0.999,-0.05 0.999,-0.05 -0.957,-19.134 z m 0.957,19.134 0.391,-0.921 -35.46,-15.058 -0.391,0.92 -0.391,0.92 35.46,15.059 z M 156.5,356.668 h 1 v -27.437 h -1 -1 v 27.437 z m 0,-27.437 0.555,-0.832 -40.723,-27.148 -0.555,0.832 -0.554,0.832 40.722,27.149 z m -40.723,-27.148 0.556,-0.831 -0.218,-0.146 -0.555,0.832 -0.556,0.831 0.218,0.145 z m -0.217,-0.145 -0.369,-0.93 -0.244,0.096 0.368,0.93 0.369,0.93 0.244,-0.097 z m -0.245,0.096 -0.368,-0.93 -26.1444,10.359 0.3683,0.93 0.3683,0.929 26.1448,-10.358 z m -26.1441,10.359 0.8,-0.6 -56.4424,-75.256 -0.8,0.6 -0.8,0.6 56.4424,75.256 z m -56.4424,-75.256 0.5254,0.851 C 56.6964,223.512 113.381,190.613 156.583,172.381 l -0.389,-0.921 -0.388,-0.921 C 112.459,188.832 55.6685,221.796 32.2031,236.286 Z m 123.4655,-65.677 0.396,0.918 0.05,-0.021 -0.396,-0.919 -0.396,-0.918 -0.05,0.022 z m 0.05,-0.022 0.571,0.821 0.045,-0.031 -0.571,-0.821 -0.571,-0.821 -0.045,0.032 z m 0.045,-0.031 0.577,0.817 c 13.259,-9.373 30.107,-14.462 48.357,-16.6 l -0.117,-0.993 -0.116,-0.993 c -18.448,2.161 -35.655,7.322 -49.278,16.953 z m -43.499,34.147 -0.179,0.984 c 1.461,0.265 3.279,0.959 5.415,2.061 l 0.458,-0.888 0.459,-0.889 c -2.216,-1.144 -4.235,-1.936 -5.974,-2.252 z m 5.694,2.157 -0.458,0.888 c 2.283,1.18 4.848,2.783 7.61,4.703 l 0.571,-0.822 0.571,-0.821 c -2.803,-1.948 -5.446,-3.603 -7.835,-4.837 z m 7.723,4.769 -0.571,0.822 c 5.525,3.84 11.746,8.881 17.955,14.154 l 0.647,-0.763 0.648,-0.762 c -6.222,-5.284 -12.502,-10.375 -18.108,-14.272 z m 18.031,14.213 -0.647,0.763 c 6.21,5.274 12.361,10.739 17.776,15.449 l 0.656,-0.755 0.657,-0.754 c -5.393,-4.69 -11.573,-10.181 -17.794,-15.465 z m 17.785,15.457 -0.656,0.755 c 5.381,4.68 10.076,8.65 13.289,10.835 l 0.563,-0.827 0.562,-0.827 c -3.096,-2.105 -7.697,-5.99 -13.101,-10.69 z m 13.196,10.763 -0.563,0.827 c 1.622,1.103 2.856,1.85 4.059,2.268 l 0.328,-0.945 0.328,-0.944 c -0.93,-0.323 -1.973,-0.934 -3.59,-2.033 z m 3.824,2.15 -0.328,0.945 c 1.266,0.44 2.4,0.484 3.754,0.389 l -0.07,-0.998 -0.069,-0.997 c -1.217,0.085 -2.049,0.033 -2.959,-0.283 z m 3.356,0.336 0.07,0.998 c 2.551,-0.178 6.058,-0.843 14.071,-0.893 l -0.006,-1 -0.006,-1 c -8.085,0.051 -11.843,0.733 -14.198,0.898 z m 14.135,-0.895 -0.818,-0.575 -15.744,22.424 0.818,0.575 0.818,0.574 15.745,-22.423 z m -15.744,22.424 0.254,-0.967 -39.626,-10.402 -0.254,0.967 -0.254,0.968 39.626,10.401 z m -39.626,-10.402 0.403,-0.915 c -0.401,-0.177 -0.871,-0.363 -1.323,-0.505 l -0.3,0.955 -0.299,0.954 c 0.363,0.113 0.761,0.27 1.116,0.426 z m -1.22,-0.465 0.3,-0.955 c -0.407,-0.127 -1.01,-0.29 -1.559,-0.252 l 0.068,0.998 0.068,0.997 c 0.142,-0.009 0.43,0.042 0.824,0.166 z m -1.191,-0.209 -0.069,-0.998 c -0.245,0.017 -0.881,0.097 -1.333,0.664 l 0.782,0.624 0.782,0.623 c -0.02,0.024 -0.042,0.044 -0.064,0.059 -0.021,0.015 -0.038,0.022 -0.046,0.025 -0.008,0.004 -0.011,0.004 -0.007,0.003 0.004,-10e-4 0.012,-0.002 0.024,-0.003 z m -0.62,0.29 -0.783,-0.623 c -0.516,0.649 -0.373,1.37 -0.257,1.707 l 0.945,-0.326 0.946,-0.325 c -0.007,-0.019 -0.001,-0.013 -0.002,0.018 -0.001,0.019 -0.005,0.047 -0.017,0.081 -0.012,0.034 -0.03,0.065 -0.05,0.09 z m -0.095,0.758 -0.945,0.327 c 0.122,0.355 0.334,0.673 0.534,0.932 l 0.791,-0.612 0.791,-0.612 c -0.147,-0.19 -0.207,-0.306 -0.226,-0.361 z m 0.38,0.647 -0.791,0.612 c 0.214,0.276 0.487,0.576 0.812,0.902 l 0.707,-0.707 0.708,-0.708 c -0.292,-0.291 -0.502,-0.526 -0.645,-0.711 z m 0.728,0.807 -0.707,0.707 c 1.146,1.145 7.751,8.822 15.632,18.063 l 0.761,-0.649 0.761,-0.649 c -7.834,-9.186 -14.52,-16.96 -15.739,-18.18 z m 15.686,18.121 -0.761,0.649 c 7.836,9.187 16.848,19.823 22.764,26.822 l 0.764,-0.645 0.763,-0.646 c -5.917,-7 -14.931,-17.638 -22.769,-26.829 z m 22.767,26.826 -0.836,0.549 c 4.144,6.305 12.919,22.041 15.261,34.919 l 0.984,-0.179 0.984,-0.179 c -2.416,-13.283 -11.374,-29.294 -15.558,-35.659 z m 15.409,35.289 -0.984,0.179 c 2.096,11.529 2.548,22.893 2.513,28.681 l 1,0.006 1,0.006 c 0.036,-5.875 -0.421,-17.368 -2.545,-29.051 z m 2.529,28.866 0.895,-0.447 -2.544,-5.088 -0.895,0.447 -0.894,0.447 2.544,5.088 z m -2.544,-5.088 0.999,-0.05 -0.994,-19.893 -0.999,0.05 -0.999,0.05 0.994,19.893 z m -0.994,-19.893 0.999,-0.043 -0.003,-0.069 -0.999,0.042 -0.999,0.042 0.003,0.07 z m -0.003,-0.07 0.946,-0.324 -0.023,-0.066 -0.945,0.325 -0.946,0.325 0.022,0.065 z m -0.022,-0.065 0.945,-0.327 -0.708,-2.049 -0.945,0.326 -0.946,0.327 0.708,2.049 z m -0.708,-2.05 0.943,-0.331 c -1.766,-5.035 -4.256,-11.606 -6.501,-17.32 l -0.931,0.366 -0.93,0.366 c 2.24,5.701 4.72,12.247 6.475,17.25 z m -6.489,-17.285 0.931,-0.366 c -1.283,-3.266 -2.491,-6.261 -3.442,-8.537 l -0.922,0.385 -0.923,0.386 c 0.943,2.258 2.145,5.24 3.426,8.498 z m -3.433,-8.518 0.922,-0.385 c -0.474,-1.137 -0.888,-2.102 -1.217,-2.835 l -0.912,0.41 -0.912,0.41 c 0.318,0.709 0.724,1.656 1.196,2.786 z m -1.207,-2.81 0.912,-0.41 c -0.305,-0.678 -0.592,-1.285 -0.801,-1.599 l -0.832,0.555 -0.832,0.554 c 0.097,0.146 0.314,0.583 0.641,1.31 z m -0.721,-1.454 0.832,-0.555 c -0.846,-1.269 -14.586,-21.081 -28.205,-34.246 l -0.695,0.719 -0.695,0.719 c 13.459,13.011 27.103,32.676 27.931,33.917 z m -28.068,-34.082 0.695,-0.719 c -7.482,-7.233 -14.834,-14.752 -20.704,-20.77 l -0.716,0.699 -0.716,0.698 c 5.87,6.016 13.24,13.555 20.746,20.811 z m -20.725,-20.79 0.716,-0.699 c -2.932,-3.005 -5.501,-5.642 -7.525,-7.674 l -0.709,0.706 -0.708,0.705 c 2.015,2.023 4.574,4.65 7.51,7.66 z m -7.518,-7.667 0.709,-0.706 c -1.994,-2.001 -3.542,-3.5 -4.393,-4.162 l -0.614,0.789 -0.614,0.79 c 0.729,0.567 2.179,1.962 4.204,3.994 z m -4.298,-4.079 0.614,-0.789 c -2.174,-1.691 -6.731,-5.997 -10.948,-10.025 l -0.691,0.723 -0.691,0.723 c 4.178,3.99 8.826,8.388 11.102,10.158 z m -11.025,-10.091 0.691,-0.723 c -2.088,-1.995 -4.08,-3.909 -5.608,-5.35 l -0.686,0.727 -0.687,0.727 c 1.522,1.436 3.504,3.34 5.599,5.342 z m -5.603,-5.346 0.686,-0.727 c -0.763,-0.72 -1.421,-1.333 -1.923,-1.784 l -0.668,0.744 -0.6676,0.744 c 0.4826,0.433 1.1246,1.032 1.8856,1.75 z m -1.905,-1.767 0.668,-0.744 c -0.249,-0.224 -0.471,-0.418 -0.653,-0.568 l -0.6367,0.771 -0.6364,0.772 c 0.1508,0.124 0.3491,0.297 0.5905,0.513 z m -0.6217,-0.541 0.6367,-0.771 c -0.077,-0.063 -0.153,-0.121 -0.211,-0.166 l -0.6063,0.796 -0.606,0.795 c 0.06,0.046 0.1076,0.083 0.1502,0.118 z m -0.1806,-0.141 0.9833,0.183 c 0.015,-0.084 0.054,-0.243 0.13,-0.487 l -0.9551,-0.297 -0.955,-0.297 c -0.0883,0.285 -0.1509,0.525 -0.1862,0.714 z m 0.1582,-0.601 0.9551,0.297 c 0.174,-0.559 0.479,-1.386 0.9,-2.442 l -0.928,-0.37 -0.9291,-0.371 c -0.4262,1.068 -0.7552,1.953 -0.9529,2.589 z m 0.9271,-2.515 0.928,0.37 c 0.839,-2.102 2.089,-4.989 3.522,-8.199 l -0.913,-0.408 -0.913,-0.408 c -1.436,3.216 -2.699,6.134 -3.5531,8.274 z m 3.537,-8.237 0.913,0.408 c 2.801,-6.273 6.277,-13.717 8.686,-18.791 l -0.903,-0.429 -0.903,-0.429 c -2.414,5.082 -5.897,12.541 -8.706,18.833 z m 181.597,147.633 v -1 h -9.073 v 1 1 h 9.073 z m -9.073,0 -0.965,-0.263 -0.1,0.369 0.965,0.263 0.964,0.263 0.101,-0.369 z m -0.1,0.369 -0.965,-0.263 c -0.421,1.544 -0.985,3.291 -1.613,4.997 l 0.938,0.345 0.938,0.346 c 0.646,-1.753 1.228,-3.555 1.666,-5.162 z m -1.64,5.079 0.994,0.109 2.434,-22.206 -0.994,-0.109 -0.995,-0.109 -2.433,22.206 z m 2.434,-22.206 -0.895,0.447 8.38,16.758 0.894,-0.447 0.895,-0.447 -8.38,-16.758 z m 30.205,-11.03 -0.996,0.09 0.954,10.494 0.996,-0.091 0.996,-0.09 -0.955,-10.494 z m 0.954,10.493 -0.448,-0.894 -16.325,8.162 0.448,0.894 0.447,0.895 16.325,-8.162 z m -16.325,8.162 0.794,-0.606 -10.585,-13.872 -0.795,0.607 -0.795,0.607 10.586,13.871 z m -10.586,-13.871 0.945,0.326 8.326,-24.121 -0.945,-0.326 -0.946,-0.326 -8.326,24.121 z m 8.326,-24.121 -0.739,0.674 17.631,19.337 0.739,-0.674 0.739,-0.674 -17.631,-19.337 z m -0.768,-0.841 -0.945,-0.326 -8.287,24.007 0.945,0.326 0.945,0.326 8.287,-24.007 z m -8.287,24.007 0.795,-0.607 -1.776,-2.328 -0.795,0.607 -0.795,0.607 1.776,2.328 z m -1.776,-2.328 0.953,0.3 7.661,-24.315 -0.954,-0.301 -0.954,-0.3 -7.66,24.315 z m 7.66,-24.316 -0.739,0.674 2.403,2.637 0.739,-0.674 0.739,-0.673 -2.403,-2.637 z m 25.24,0.244 -0.975,-0.221 -3.262,14.447 0.975,0.22 0.976,0.22 3.262,-14.446 z m -3.262,14.446 0.645,-0.764 -18.032,-15.215 -0.645,0.764 -0.645,0.764 18.032,15.215 z m -18.032,-15.215 0.893,0.451 7.454,-14.76 -0.893,-0.451 -0.892,-0.45 -7.455,14.759 z m 7.454,-14.76 -0.746,0.666 13.84,15.528 0.746,-0.665 0.747,-0.666 -13.84,-15.528 z m -60.615,28.422 0.621,0.784 0.81,-0.641 -0.62,-0.784 -0.621,-0.784 -0.811,0.641 z m 0.811,-0.641 0.62,0.784 c 2.056,-1.628 5.152,-4.391 7.799,-7.428 l -0.753,-0.657 -0.754,-0.657 c -2.551,2.926 -5.552,5.605 -7.533,7.174 z m 7.666,-7.301 0.753,0.657 c 1.324,-1.519 2.563,-3.136 3.505,-4.74 l -0.863,-0.506 -0.862,-0.506 c -0.857,1.46 -2.012,2.975 -3.287,4.438 z m 3.395,-4.589 0.863,0.506 c 0.929,-1.583 1.635,-3.266 1.76,-4.893 l -0.997,-0.077 -0.997,-0.077 c -0.092,1.192 -0.63,2.568 -1.491,4.035 z m 1.626,-4.464 0.997,0.077 c 0.399,-5.182 2.497,-27.128 3.498,-37.471 l -0.995,-0.096 -0.995,-0.096 c -1,10.329 -3.101,32.303 -3.502,37.509 z m 3.5,-37.49 0.995,0.096 0.027,-0.272 -0.996,-0.097 -0.995,-0.096 -0.026,0.273 z m 0.026,-0.273 0.615,-0.788 -0.217,-0.169 -0.614,0.788 -0.615,0.789 0.217,0.169 z m -0.216,-0.169 0.615,-0.788 -16,-12.5 -0.615,0.788 -0.616,0.788 16,12.5 z m -16,-12.5 0.616,-0.787 -0.808,-0.632 -0.616,0.788 -0.616,0.787 0.807,0.632 z m -0.808,-0.631 h -1 v 68.058 h 1 1 v -68.058 z m -6.774,0.607 -0.55,-0.835 -19,12.5 0.55,0.835 0.549,0.835 19,-12.5 z m -19,12.5 -0.551,-0.835 -0.25,0.166 0.551,0.834 0.551,0.835 0.25,-0.165 z m -0.25,0.165 -0.997,0.088 0.027,0.298 0.996,-0.088 0.996,-0.088 -0.026,-0.298 z m 0.026,0.298 -0.996,0.089 c 0.418,4.684 1.196,12.181 2.17,19.464 l 0.991,-0.132 0.991,-0.133 c -0.969,-7.249 -1.744,-14.716 -2.16,-19.377 z m 2.165,19.421 -0.991,0.132 c 0.968,7.24 2.149,14.41 3.394,18.354 l 0.953,-0.302 0.954,-0.301 c -1.185,-3.752 -2.347,-10.751 -3.319,-18.016 z m 3.356,18.184 -0.953,0.302 c 2.537,8.034 9.424,14.505 12.552,16.764 l 0.585,-0.811 0.586,-0.81 c -2.958,-2.137 -9.462,-8.291 -11.816,-15.746 z m 12.184,16.255 -0.585,0.811 0.771,0.557 0.586,-0.811 0.585,-0.811 -0.772,-0.557 z m 0.772,0.557 0.999,0.023 0.022,-0.951 -1,-0.022 -1,-0.023 -0.021,0.95 z m 0.021,-0.95 1,0.022 1.5,-66 -1,-0.022 -1,-0.023 -1.5,66 z m 1.5,-66 1,0.022 0.021,-0.953 -1,-0.022 -0.999,-0.023 -0.022,0.953 z m 0.021,-0.953 -0.549,-0.836 -0.796,0.524 0.55,0.835 0.549,0.836 0.796,-0.524 z m -2.5,65.946 0.623,-0.783 c -3.13,-2.486 -8.634,-8.089 -10.714,-14.674 l -0.953,0.302 -0.954,0.301 c 2.253,7.134 8.111,13.042 11.376,15.637 z m -11.044,-15.155 0.953,-0.302 c -1.155,-3.656 -2.307,-10.57 -3.281,-17.847 l -0.991,0.133 -0.991,0.133 c 0.97,7.252 2.141,14.336 3.356,18.184 z m -3.319,-18.016 0.991,-0.133 c -0.947,-7.08 -1.707,-14.373 -2.128,-19.039 l -0.996,0.09 -0.996,0.09 c 0.423,4.688 1.186,12.01 2.138,19.125 z m -2.133,-19.082 0.55,0.835 17.952,-11.81 -0.549,-0.836 -0.55,-0.835 -17.952,11.811 z m 17.953,-11.811 -1,-0.022 -1.456,64.063 0.999,0.023 1,0.023 1.456,-64.064 z m 22.998,11.783 -0.996,-0.097 c -1.009,10.432 -3.077,32.085 -3.475,37.258 l 0.997,0.077 0.997,0.077 c 0.396,-5.149 2.462,-26.774 3.472,-37.219 z m -3.474,37.238 -0.997,-0.077 c -0.075,0.973 -0.53,2.194 -1.358,3.604 l 0.863,0.506 0.862,0.506 c 0.895,-1.525 1.519,-3.053 1.627,-4.462 z m -1.492,4.033 -0.863,-0.506 c -0.815,1.389 -1.927,2.852 -3.178,4.288 l 0.754,0.657 0.753,0.657 c 1.3,-1.491 2.497,-3.057 3.396,-4.59 z m -3.287,4.439 -0.754,-0.657 c -2.18,2.5 -4.704,4.825 -6.607,6.403 l 0.638,0.77 0.638,0.77 c 1.965,-1.629 4.572,-4.029 6.838,-6.629 z m -6.723,6.516 h 1 v -63.926 h -1 -1 v 63.926 z m 0,-63.926 -0.616,0.788 14.976,11.7 0.616,-0.788 0.615,-0.788 -14.975,-11.7 z m 58.9,36.785 -0.892,-0.451 -7.525,14.9 0.893,0.451 0.893,0.451 7.524,-14.901 z m -7.524,14.9 0.645,-0.764 -1.748,-1.475 -0.645,0.764 -0.645,0.765 1.748,1.474 z m -1.748,-1.475 0.887,0.462 7.775,-14.927 -0.887,-0.462 -0.887,-0.462 -7.775,14.927 z m 7.775,-14.927 0.691,0.723 0.085,-0.081 -0.691,-0.723 -0.69,-0.724 -0.085,0.081 z m 0.085,-0.081 -0.746,0.665 1.412,1.583 0.746,-0.665 0.747,-0.666 -1.412,-1.583 z m 73.836,-69.299 -0.659,-0.752 -36.154,31.697 0.659,0.752 0.659,0.752 36.154,-31.697 z m -36.154,31.697 -0.662,-0.75 -0.016,0.015 0.661,0.75 0.662,0.75 0.017,-0.015 z m -0.017,0.015 -0.727,-0.687 -0.016,0.018 0.727,0.686 0.727,0.687 0.016,-0.018 z m -0.016,0.017 -0.727,-0.687 -34.722,36.682 0.726,0.688 0.726,0.687 34.723,-36.682 z m -34.723,36.683 0.582,-0.813 -1.165,-0.834 -0.582,0.813 -0.582,0.813 1.165,0.834 z m -1.165,-0.834 0.737,0.676 33.619,-36.667 -0.737,-0.676 -0.737,-0.676 -33.619,36.667 z m 33.619,-36.667 0.736,0.677 0.234,-0.254 -0.736,-0.677 -0.737,-0.677 -0.233,0.254 z m 0.234,-0.254 0.893,-0.448 -0.154,-0.308 -0.894,0.448 -0.894,0.449 0.155,0.307 z m -0.155,-0.308 0.895,-0.447 -1,-2 -0.895,0.447 -0.894,0.448 1,2 z m -1,-2 0.895,-0.446 -0.199,-0.399 -0.895,0.446 -0.895,0.446 0.199,0.4 z m -0.199,-0.399 -0.344,-0.939 -0.419,0.153 0.344,0.939 0.344,0.939 0.419,-0.153 z m -0.419,0.153 -0.343,-0.939 -42.159,15.375 0.343,0.939 0.343,0.94 42.159,-15.375 z m -42.159,15.375 0.787,-0.616 -17.319,-22.129 -0.787,0.616 -0.788,0.617 17.319,22.129 z m -17.319,-22.129 0.274,0.962 23.787,-6.796 -0.274,-0.962 -0.275,-0.961 -23.787,6.796 z m 23.787,-6.796 0.277,0.961 0.108,-0.031 -0.277,-0.961 -0.277,-0.961 -0.108,0.032 z m 0.108,-0.031 0.663,0.749 0.085,-0.075 -0.663,-0.749 -0.663,-0.749 -0.085,0.075 z m 0.085,-0.075 0.663,0.749 52.091,-46.139 -0.663,-0.749 -0.663,-0.748 -52.091,46.138 z m 52.091,-46.139 -0.805,0.594 23.403,31.692 0.804,-0.594 0.805,-0.594 -23.403,-31.692 z m -50.207,99.4 -0.686,-0.728 -0.166,0.156 0.686,0.728 0.685,0.728 0.166,-0.156 z m -0.166,0.156 0.746,-0.665 -0.678,-0.762 -0.747,0.665 -0.746,0.666 0.678,0.761 z m -0.679,-0.762 -0.582,0.813 0.844,0.606 0.583,-0.813 0.582,-0.813 -0.844,-0.605 z m -149.274,-122.735 -0.809,0.589 45.5,62.5 0.809,-0.589 0.808,-0.589 -45.5,-62.5 z m 45.5,62.5 -0.81,0.587 0.044,0.061 0.81,-0.588 0.809,-0.587 -0.044,-0.06 z m 0.044,0.06 -0.604,0.797 0.06,0.046 0.604,-0.797 0.604,-0.797 -0.06,-0.045 z m 0.06,0.046 -0.6,0.8 22,16.5 0.6,-0.8 0.6,-0.8 -22,-16.5 z m 22,16.5 0.685,0.729 0.718,-0.675 -0.685,-0.728 -0.685,-0.729 -0.718,0.675 z m 0.718,-0.674 0.836,-0.549 c -1.799,-2.742 -11.42,-14.878 -21.092,-27.06 l -0.783,0.622 -0.783,0.622 c 9.726,12.25 19.252,24.271 20.986,26.913 z m -21.039,-26.987 0.783,-0.622 c -9.738,-12.265 -19.569,-24.627 -21.937,-27.982 l -0.817,0.577 -0.817,0.577 c 2.411,3.415 12.301,15.849 22.005,28.072 z m -21.971,-28.027 0.817,-0.577 c -4.355,-6.169 -8.168,-8.856 -24.703,-24.233 l -0.681,0.732 -0.681,0.732 c 16.71,15.541 20.236,17.979 24.431,23.923 z m -24.567,-24.078 -0.663,-0.749 -0.745,0.66 0.663,0.749 0.663,0.748 0.745,-0.66 z m 3.077,4.213 -0.678,0.735 c 13.589,12.535 16.755,14.927 20.535,20.283 l 0.817,-0.577 0.817,-0.577 c -3.941,-5.582 -7.362,-8.191 -20.813,-20.599 z m 20.674,20.441 -0.817,0.577 c 2.432,3.445 12.35,15.917 22.038,28.118 l 0.783,-0.622 0.783,-0.621 c -9.721,-12.244 -19.581,-24.644 -21.97,-28.029 z m 22.004,28.073 -0.783,0.622 c 7.769,9.786 15.396,19.407 19.033,24.227 l 0.799,-0.603 0.798,-0.602 c -3.656,-4.844 -11.304,-14.491 -19.064,-24.265 z m 19.049,24.246 0.6,-0.8 -19.287,-14.463 -0.6,0.8 -0.6,0.8 19.287,14.463 z m -19.287,-14.463 0.809,-0.589 -42.441,-58.297 -0.808,0.589 -0.808,0.588 42.44,58.297 z M 229.514,0 v 1 c 107.02,1.2e-4 207.648,72.6268 229.231,164.929 l 0.974,-0.228 0.973,-0.228 C 438.863,72.1173 337.301,-0.999876 229.514,-1 Z m 230.205,165.701 0.797,-0.604 c -16.38,-21.61 -41.829,-38.522 -72.45,-50.998 l -0.378,0.926 -0.377,0.926 c 30.423,12.395 55.521,29.126 71.611,50.354 z m -72.031,-50.676 0.883,-0.47 c -5.286,-9.918 -9.054,-15.5861 -11.917,-18.4617 l -0.709,0.7055 -0.708,0.7055 c 2.633,2.6457 6.284,8.0747 11.569,17.9917 z m -11.743,-18.2262 0.709,-0.7055 c -1.433,-1.4389 -2.807,-2.3547 -4.193,-2.5934 l -0.17,0.9855 -0.17,0.9854 c 0.778,0.1341 1.79,0.7019 3.116,2.0335 z m -3.654,-2.3134 0.17,-0.9856 c -1.514,-0.2604 -2.725,0.33 -3.632,1.1784 l 0.684,0.73 0.683,0.73 c 0.583,-0.5453 1.19,-0.7939 1.925,-0.6673 z m -2.778,0.9228 -0.684,-0.73 c -0.848,0.7945 -1.513,1.8861 -2.067,2.8735 l 0.872,0.4893 0.872,0.4894 c 0.551,-0.9831 1.089,-1.829 1.69,-2.3922 z m -1.879,2.6328 -0.872,-0.4893 c -0.6,1.0688 -1.073,2.0179 -1.64,2.9003 l 0.842,0.54 0.841,0.54 c 0.608,-0.946 1.165,-2.0462 1.701,-3.0016 z m -1.67,2.951 -0.842,-0.54 c -0.56,0.872 -1.059,1.421 -1.538,1.696 l 0.498,0.868 0.498,0.867 c 0.904,-0.52 1.616,-1.401 2.225,-2.351 z m -1.882,2.024 -0.498,-0.868 c -0.386,0.222 -0.854,0.326 -1.617,0.041 l -0.35,0.937 -0.35,0.937 c 1.285,0.48 2.378,0.357 3.313,-0.18 z m -2.465,0.11 0.35,-0.937 C 290.148,75.3598 184.759,77.8483 105.272,102.16 l 0.292,0.956 0.293,0.956 c 79.171,-24.2146 184.096,-26.65 255.41,-0.009 z m -256.053,-0.01 -0.292,-0.956 c -0.423,0.129 -0.802,0.065 -1.31,-0.326 l -0.609,0.793 -0.61,0.793 c 0.894,0.687 1.933,1.014 3.114,0.653 z m -2.211,-0.489 0.609,-0.793 c -0.575,-0.442 -1.18,-1.214 -1.849,-2.286 l -0.848,0.529 -0.849,0.529 c 0.695,1.115 1.455,2.144 2.327,2.814 z m -2.088,-2.55 0.848,-0.529 c -0.668,-1.0721 -1.276,-2.2322 -1.977,-3.4629 l -0.8694,0.495 -0.8689,0.4949 c 0.6529,1.1463 1.3237,2.4174 2.0183,3.531 z m -1.9984,-3.4969 0.8694,-0.495 C 99.4679,94.913 98.7234,93.6926 97.8758,92.7544 l -0.742,0.6704 -0.742,0.6704 c 0.6885,0.7621 1.3416,1.8136 2.0059,2.9798 z m -2.1328,-3.1553 0.742,-0.6704 C 97.0387,91.828 95.8952,90.9485 94.4071,90.9182 l -0.0204,0.9998 -0.0204,0.9998 c 0.6732,0.0137 1.3333,0.4113 2.0255,1.1774 z m -2.7471,-1.5068 0.0204,-0.9998 c -1.4958,-0.0304 -2.851,0.8046 -4.0916,2.1392 l 0.7324,0.6809 0.7324,0.6809 c 1.0694,-1.1505 1.9154,-1.5151 2.5861,-1.5014 z m -3.3388,1.8203 -0.7325,-0.6809 c -2.4362,2.6209 -5.282,8.0856 -8.9232,17.7626 l 0.9359,0.352 0.936,0.352 c 3.6491,-9.698 6.3808,-14.8077 8.5162,-17.1049 z m -8.7198,17.4337 -0.4608,-0.888 c -18.4478,9.58 -35.7099,18.632 -49.8991,28.523 l 0.5718,0.82 0.5719,0.82 C 47.1753,130.644 64.3171,121.652 82.789,112.059 Z M 32.54,139.627 31.9682,138.807 C 18.6729,148.074 7.95509,158.159 1.45994,170.246 l 0.88088,0.474 0.88088,0.473 C 9.50583,159.498 19.9384,149.63 33.1119,140.447 Z m -30.19918,31.093 0.9859,0.167 C 19.6026,74.9883 119.061,1 229.514,1 V 0 -1 C 118.297,-1 17.827,73.4974 1.35492,170.552 Z m 216.22518,-17.145 0.043,0.999 c 7.634,-0.322 15.4,-0.211 23.148,0.244 l 0.058,-0.999 0.059,-0.998 c -7.806,-0.457 -15.64,-0.571 -23.35,-0.245 z m 23.249,0.244 0.016,-1 c -5.922,-0.091 -12.022,-0.16 -18.318,-0.214 l -0.009,0.999 -0.009,1 c 6.294,0.055 12.389,0.124 18.305,0.215 z m -18.311,-0.215 0.009,-0.999 c -1.656,-0.015 -3.303,-0.024 -4.943,-0.03 l -0.004,1 -0.003,1 c 1.637,0.006 3.281,0.015 4.932,0.029 z"
     fill="#000000"
     mask="url(#path-1-inside-1_4_37)"
     id="path324"
     transform="scale(0.1718984,0.20105993)" />
</svg>
